<svg width="179" height="48" viewBox="0 0 179 48" fill="none" xmlns="http://www.w3.org/2000/svg">
<path fill-rule="evenodd" clip-rule="evenodd" d="M17.1756 4.73261L25.1495 0.796336C25.9429 0.404656 26.3396 0.208815 26.7699 0.211701C27.2003 0.214587 27.589 0.413021 28.3665 0.809889C30.2489 1.77074 33.5017 3.46009 36.5458 5.18196C35.8631 5.81869 35.0659 6.5727 34.2051 7.40661C31.7925 9.74378 28.8416 12.7459 26.5167 15.5667L17.1756 4.73261ZM14.2258 6.1888L4.28194 11.0976C2.31669 12.0677 1.33406 12.5528 1.16237 13.4366C0.990691 14.3204 1.72025 15.1381 3.17937 16.7734L16.0344 31.181C16.6949 30.0829 17.5589 28.6643 18.537 27.1021C20.316 24.261 22.497 20.9051 24.5272 18.1367L14.2258 6.1888ZM36.4212 9.6942C37.5809 8.57067 38.6236 7.59455 39.4183 6.86183C42.2386 8.5741 45.9658 11.0087 48.7429 12.8487C50.5271 14.0309 51.4191 14.622 51.4955 15.4942C51.5718 16.3663 50.7798 17.1188 49.1959 18.6236C46.4454 21.2368 42.6162 25.0494 39.9216 28.4375C37.1227 31.9569 33.6627 37.3887 31.3458 41.1655C30.14 43.1311 29.5371 44.114 28.6278 44.1952C27.7186 44.2765 26.9582 43.4242 25.4374 41.7198L18.2558 33.6708C18.3361 33.5361 18.4215 33.3931 18.5119 33.2422C19.1893 32.1112 20.1407 30.5425 21.2365 28.7924C23.4388 25.2751 26.1863 21.0864 28.456 18.2324C30.7202 15.3856 33.8385 12.1962 36.4212 9.6942Z" fill="#174924"/>
<mask id="path-2-outside-1_836_1907" maskUnits="userSpaceOnUse" x="63.5684" y="1.1814" width="115" height="44" fill="black">
<rect fill="white" x="63.5684" y="1.1814" width="115" height="44"/>
<path d="M65.2948 2.1814H67.9795V16.7595H78.1956V19.3307H65.2948V2.1814Z"/>
<path d="M78.6858 19.3307L85.6826 2.1814H89.389L96.3977 19.3307H93.3804L91.741 15.1689H83.3306L81.7031 19.3307H78.6858ZM84.2809 12.7173H90.7907L87.5358 4.41774L84.2809 12.7173Z"/>
<path d="M100.345 4.14268V19.3307H97.66V2.1814H102.317L110.24 17.3933V2.1814H112.925V19.3307H108.268L100.345 4.14268Z"/>
<path d="M115.66 19.3307V2.1814H122.111C123.9 2.1814 125.445 2.55611 126.743 3.30555C128.042 4.05498 129.012 5.07947 129.654 6.37902C130.303 7.6706 130.628 9.16947 130.628 10.8756C130.628 12.0875 130.434 13.2116 130.046 14.2481C129.666 15.2766 129.119 16.1695 128.407 16.9269C127.694 17.6763 126.795 18.2663 125.71 18.6968C124.633 19.1194 123.433 19.3307 122.111 19.3307H115.66ZM118.345 4.633V16.8791H122.111C123.029 16.8791 123.861 16.7196 124.605 16.4007C125.35 16.0818 125.963 15.6473 126.446 15.0972C126.93 14.5471 127.302 13.9132 127.563 13.1957C127.824 12.4702 127.955 11.6968 127.955 10.8756C127.955 9.01799 127.444 7.51513 126.423 6.36706C125.409 5.21102 123.972 4.633 122.111 4.633H118.345Z"/>
<path d="M67.3737 35.2482C67.3737 37.2174 67.9082 38.7721 68.9773 39.9122C70.0465 41.0523 71.4561 41.6223 73.2063 41.6223C74.9803 41.6223 76.39 41.1081 77.4353 40.0796C78.4807 39.0511 79.138 37.7675 79.4073 36.2288L81.8425 37.2095C81.3911 39.2584 80.4051 40.9128 78.8846 42.1725C77.372 43.4321 75.4792 44.062 73.2063 44.062C71.5353 44.0859 70.0346 43.7112 68.7041 42.9378C67.3737 42.1565 66.3481 41.0922 65.6274 39.7448C64.9067 38.3974 64.5543 36.8985 64.5702 35.2482C64.5464 34.0363 64.7563 32.8843 65.1998 31.792C65.6512 30.6918 66.261 29.747 67.0292 28.9577C67.7973 28.1684 68.72 27.5465 69.797 27.0921C70.882 26.6297 72.0184 26.4104 73.2063 26.4343C74.2596 26.4343 75.2298 26.5898 76.1167 26.9008C77.0037 27.2037 77.7561 27.6223 78.3738 28.1565C78.9994 28.6906 79.5221 29.3005 79.9418 29.9862C80.3616 30.6639 80.6704 31.3974 80.8684 32.1867L78.4332 33.2869C78.1718 31.9554 77.5858 30.8911 76.6751 30.0938C75.7722 29.2886 74.616 28.886 73.2063 28.886C71.5195 28.886 70.1257 29.4719 69.0249 30.6439C67.9241 31.8159 67.3737 33.3507 67.3737 35.2482Z"/>
<path d="M83.4137 26.6735H86.0865V36.8148C86.0865 38.2738 86.4904 39.4179 87.2982 40.2471C88.106 41.0762 89.1791 41.4908 90.5175 41.4908C91.8559 41.4908 92.9289 41.0762 93.7367 40.2471C94.5445 39.4179 94.9484 38.2738 94.9484 36.8148V26.6735H97.6212V36.9703C97.6212 39.091 96.9758 40.8051 95.6849 42.1127C94.394 43.4122 92.6716 44.062 90.5175 44.062C88.3634 44.062 86.6409 43.4122 85.35 42.1127C84.0592 40.8051 83.4137 39.091 83.4137 36.9703V26.6735Z"/>
<path d="M113.911 43.8228H110.62C110.414 43.4162 110.26 42.9418 110.157 42.3997C110.062 41.8575 110.014 41.0244 110.014 39.9002C110.014 38.7522 109.765 37.935 109.266 37.4486C108.767 36.9623 108.003 36.7191 106.973 36.7191H102.839V43.8228H100.155V26.6735H108.316C109.987 26.6735 111.313 27.116 112.295 28.001C113.285 28.878 113.78 29.9902 113.78 31.3376C113.78 32.4139 113.483 33.3427 112.889 34.124C112.295 34.8974 111.46 35.4754 110.383 35.8581C111.23 36.1929 111.875 36.6872 112.319 37.341C112.762 37.9948 113.008 38.8558 113.055 39.9242C113.095 40.841 113.158 41.5865 113.246 42.1605C113.341 42.6309 113.562 43.0534 113.911 43.4282V43.8228ZM102.839 34.1479H108.066C108.993 34.1479 109.709 33.9367 110.216 33.5141C110.731 33.0836 110.988 32.4777 110.988 31.6963C110.988 30.915 110.731 30.3131 110.216 29.8905C109.709 29.46 108.993 29.2447 108.066 29.2447H102.839V34.1479Z"/>
<path d="M114.567 43.8228L121.564 26.6735H125.27L132.279 43.8228H129.262L127.623 39.6611H119.212L117.585 43.8228H114.567ZM120.162 37.2095H126.672L123.417 28.9099L120.162 37.2095Z"/>
<path d="M144.637 26.6735V29.2447H138.436V43.8228H135.763V29.2447H129.55V26.6735H144.637Z"/>
<path d="M153.359 26.4343C154.555 26.4104 155.703 26.6337 156.804 27.1041C157.913 27.5744 158.867 28.2083 159.667 29.0055C160.467 29.8028 161.1 30.7476 161.568 31.8398C162.035 32.9321 162.257 34.0682 162.233 35.2482C162.257 36.4281 162.035 37.5682 161.568 38.6685C161.1 39.7607 160.467 40.7055 159.667 41.5028C158.867 42.3 157.913 42.9339 156.804 43.4042C155.703 43.8667 154.555 44.0859 153.359 44.062C152.163 44.0859 151.011 43.8667 149.902 43.4042C148.802 42.9339 147.851 42.3 147.051 41.5028C146.251 40.7055 145.614 39.7607 145.139 38.6685C144.672 37.5682 144.45 36.4281 144.474 35.2482C144.45 34.0762 144.672 32.9441 145.139 31.8518C145.614 30.7516 146.251 29.8028 147.051 29.0055C147.851 28.2083 148.802 27.5744 149.902 27.1041C151.011 26.6337 152.163 26.4104 153.359 26.4343ZM153.359 41.4908C154.476 41.4908 155.493 41.2317 156.412 40.7135C157.339 40.1873 158.075 39.4458 158.622 38.4891C159.168 37.5323 159.441 36.452 159.441 35.2482C159.441 33.4224 158.859 31.9275 157.695 30.7635C156.539 29.5915 155.094 29.0055 153.359 29.0055C151.625 29.0055 150.176 29.5955 149.011 30.7755C147.855 31.9554 147.277 33.4543 147.277 35.2721C147.277 37.0978 147.863 38.5927 149.035 39.7567C150.207 40.9128 151.649 41.4908 153.359 41.4908Z"/>
<path d="M178 43.8228H174.709C174.503 43.4162 174.349 42.9418 174.246 42.3997C174.151 41.8575 174.103 41.0244 174.103 39.9002C174.103 38.7522 173.854 37.935 173.355 37.4486C172.856 36.9623 172.092 36.7191 171.062 36.7191H166.928V43.8228H164.244V26.6735H172.405C174.076 26.6735 175.402 27.116 176.384 28.001C177.374 28.878 177.869 29.9902 177.869 31.3376C177.869 32.4139 177.572 33.3427 176.978 34.124C176.384 34.8974 175.549 35.4754 174.472 35.8581C175.319 36.1929 175.964 36.6872 176.408 37.341C176.851 37.9948 177.097 38.8558 177.144 39.9242C177.184 40.841 177.247 41.5865 177.335 42.1605C177.43 42.6309 177.651 43.0534 178 43.4282V43.8228ZM166.928 34.1479H172.155C173.082 34.1479 173.798 33.9367 174.305 33.5141C174.82 33.0836 175.077 32.4777 175.077 31.6963C175.077 30.915 174.82 30.3131 174.305 29.8905C173.798 29.46 173.082 29.2447 172.155 29.2447H166.928V34.1479Z"/>
</mask>
<path d="M65.2948 2.1814H67.9795V16.7595H78.1956V19.3307H65.2948V2.1814Z" fill="#174924"/>
<path d="M78.6858 19.3307L85.6826 2.1814H89.389L96.3977 19.3307H93.3804L91.741 15.1689H83.3306L81.7031 19.3307H78.6858ZM84.2809 12.7173H90.7907L87.5358 4.41774L84.2809 12.7173Z" fill="#174924"/>
<path d="M100.345 4.14268V19.3307H97.66V2.1814H102.317L110.24 17.3933V2.1814H112.925V19.3307H108.268L100.345 4.14268Z" fill="#174924"/>
<path d="M115.66 19.3307V2.1814H122.111C123.9 2.1814 125.445 2.55611 126.743 3.30555C128.042 4.05498 129.012 5.07947 129.654 6.37902C130.303 7.6706 130.628 9.16947 130.628 10.8756C130.628 12.0875 130.434 13.2116 130.046 14.2481C129.666 15.2766 129.119 16.1695 128.407 16.9269C127.694 17.6763 126.795 18.2663 125.71 18.6968C124.633 19.1194 123.433 19.3307 122.111 19.3307H115.66ZM118.345 4.633V16.8791H122.111C123.029 16.8791 123.861 16.7196 124.605 16.4007C125.35 16.0818 125.963 15.6473 126.446 15.0972C126.93 14.5471 127.302 13.9132 127.563 13.1957C127.824 12.4702 127.955 11.6968 127.955 10.8756C127.955 9.01799 127.444 7.51513 126.423 6.36706C125.409 5.21102 123.972 4.633 122.111 4.633H118.345Z" fill="#174924"/>
<path d="M67.3737 35.2482C67.3737 37.2174 67.9082 38.7721 68.9773 39.9122C70.0465 41.0523 71.4561 41.6223 73.2063 41.6223C74.9803 41.6223 76.39 41.1081 77.4353 40.0796C78.4807 39.0511 79.138 37.7675 79.4073 36.2288L81.8425 37.2095C81.3911 39.2584 80.4051 40.9128 78.8846 42.1725C77.372 43.4321 75.4792 44.062 73.2063 44.062C71.5353 44.0859 70.0346 43.7112 68.7041 42.9378C67.3737 42.1565 66.3481 41.0922 65.6274 39.7448C64.9067 38.3974 64.5543 36.8985 64.5702 35.2482C64.5464 34.0363 64.7563 32.8843 65.1998 31.792C65.6512 30.6918 66.261 29.747 67.0292 28.9577C67.7973 28.1684 68.72 27.5465 69.797 27.0921C70.882 26.6297 72.0184 26.4104 73.2063 26.4343C74.2596 26.4343 75.2298 26.5898 76.1167 26.9008C77.0037 27.2037 77.7561 27.6223 78.3738 28.1565C78.9994 28.6906 79.5221 29.3005 79.9418 29.9862C80.3616 30.6639 80.6704 31.3974 80.8684 32.1867L78.4332 33.2869C78.1718 31.9554 77.5858 30.8911 76.6751 30.0938C75.7722 29.2886 74.616 28.886 73.2063 28.886C71.5195 28.886 70.1257 29.4719 69.0249 30.6439C67.9241 31.8159 67.3737 33.3507 67.3737 35.2482Z" fill="#174924"/>
<path d="M83.4137 26.6735H86.0865V36.8148C86.0865 38.2738 86.4904 39.4179 87.2982 40.2471C88.106 41.0762 89.1791 41.4908 90.5175 41.4908C91.8559 41.4908 92.9289 41.0762 93.7367 40.2471C94.5445 39.4179 94.9484 38.2738 94.9484 36.8148V26.6735H97.6212V36.9703C97.6212 39.091 96.9758 40.8051 95.6849 42.1127C94.394 43.4122 92.6716 44.062 90.5175 44.062C88.3634 44.062 86.6409 43.4122 85.35 42.1127C84.0592 40.8051 83.4137 39.091 83.4137 36.9703V26.6735Z" fill="#174924"/>
<path d="M113.911 43.8228H110.62C110.414 43.4162 110.26 42.9418 110.157 42.3997C110.062 41.8575 110.014 41.0244 110.014 39.9002C110.014 38.7522 109.765 37.935 109.266 37.4486C108.767 36.9623 108.003 36.7191 106.973 36.7191H102.839V43.8228H100.155V26.6735H108.316C109.987 26.6735 111.313 27.116 112.295 28.001C113.285 28.878 113.78 29.9902 113.78 31.3376C113.78 32.4139 113.483 33.3427 112.889 34.124C112.295 34.8974 111.46 35.4754 110.383 35.8581C111.23 36.1929 111.875 36.6872 112.319 37.341C112.762 37.9948 113.008 38.8558 113.055 39.9242C113.095 40.841 113.158 41.5865 113.246 42.1605C113.341 42.6309 113.562 43.0534 113.911 43.4282V43.8228ZM102.839 34.1479H108.066C108.993 34.1479 109.709 33.9367 110.216 33.5141C110.731 33.0836 110.988 32.4777 110.988 31.6963C110.988 30.915 110.731 30.3131 110.216 29.8905C109.709 29.46 108.993 29.2447 108.066 29.2447H102.839V34.1479Z" fill="#174924"/>
<path d="M114.567 43.8228L121.564 26.6735H125.27L132.279 43.8228H129.262L127.623 39.6611H119.212L117.585 43.8228H114.567ZM120.162 37.2095H126.672L123.417 28.9099L120.162 37.2095Z" fill="#174924"/>
<path d="M144.637 26.6735V29.2447H138.436V43.8228H135.763V29.2447H129.55V26.6735H144.637Z" fill="#174924"/>
<path d="M153.359 26.4343C154.555 26.4104 155.703 26.6337 156.804 27.1041C157.913 27.5744 158.867 28.2083 159.667 29.0055C160.467 29.8028 161.1 30.7476 161.568 31.8398C162.035 32.9321 162.257 34.0682 162.233 35.2482C162.257 36.4281 162.035 37.5682 161.568 38.6685C161.1 39.7607 160.467 40.7055 159.667 41.5028C158.867 42.3 157.913 42.9339 156.804 43.4042C155.703 43.8667 154.555 44.0859 153.359 44.062C152.163 44.0859 151.011 43.8667 149.902 43.4042C148.802 42.9339 147.851 42.3 147.051 41.5028C146.251 40.7055 145.614 39.7607 145.139 38.6685C144.672 37.5682 144.45 36.4281 144.474 35.2482C144.45 34.0762 144.672 32.9441 145.139 31.8518C145.614 30.7516 146.251 29.8028 147.051 29.0055C147.851 28.2083 148.802 27.5744 149.902 27.1041C151.011 26.6337 152.163 26.4104 153.359 26.4343ZM153.359 41.4908C154.476 41.4908 155.493 41.2317 156.412 40.7135C157.339 40.1873 158.075 39.4458 158.622 38.4891C159.168 37.5323 159.441 36.452 159.441 35.2482C159.441 33.4224 158.859 31.9275 157.695 30.7635C156.539 29.5915 155.094 29.0055 153.359 29.0055C151.625 29.0055 150.176 29.5955 149.011 30.7755C147.855 31.9554 147.277 33.4543 147.277 35.2721C147.277 37.0978 147.863 38.5927 149.035 39.7567C150.207 40.9128 151.649 41.4908 153.359 41.4908Z" fill="#174924"/>
<path d="M178 43.8228H174.709C174.503 43.4162 174.349 42.9418 174.246 42.3997C174.151 41.8575 174.103 41.0244 174.103 39.9002C174.103 38.7522 173.854 37.935 173.355 37.4486C172.856 36.9623 172.092 36.7191 171.062 36.7191H166.928V43.8228H164.244V26.6735H172.405C174.076 26.6735 175.402 27.116 176.384 28.001C177.374 28.878 177.869 29.9902 177.869 31.3376C177.869 32.4139 177.572 33.3427 176.978 34.124C176.384 34.8974 175.549 35.4754 174.472 35.8581C175.319 36.1929 175.964 36.6872 176.408 37.341C176.851 37.9948 177.097 38.8558 177.144 39.9242C177.184 40.841 177.247 41.5865 177.335 42.1605C177.43 42.6309 177.651 43.0534 178 43.4282V43.8228ZM166.928 34.1479H172.155C173.082 34.1479 173.798 33.9367 174.305 33.5141C174.82 33.0836 175.077 32.4777 175.077 31.6963C175.077 30.915 174.82 30.3131 174.305 29.8905C173.798 29.46 173.082 29.2447 172.155 29.2447H166.928V34.1479Z" fill="#174924"/>
<path d="M65.2948 2.1814H67.9795V16.7595H78.1956V19.3307H65.2948V2.1814Z" stroke="#174924" stroke-width="0.318988" mask="url(#path-2-outside-1_836_1907)"/>
<path d="M78.6858 19.3307L85.6826 2.1814H89.389L96.3977 19.3307H93.3804L91.741 15.1689H83.3306L81.7031 19.3307H78.6858ZM84.2809 12.7173H90.7907L87.5358 4.41774L84.2809 12.7173Z" stroke="#174924" stroke-width="0.318988" mask="url(#path-2-outside-1_836_1907)"/>
<path d="M100.345 4.14268V19.3307H97.66V2.1814H102.317L110.24 17.3933V2.1814H112.925V19.3307H108.268L100.345 4.14268Z" stroke="#174924" stroke-width="0.318988" mask="url(#path-2-outside-1_836_1907)"/>
<path d="M115.66 19.3307V2.1814H122.111C123.9 2.1814 125.445 2.55611 126.743 3.30555C128.042 4.05498 129.012 5.07947 129.654 6.37902C130.303 7.6706 130.628 9.16947 130.628 10.8756C130.628 12.0875 130.434 13.2116 130.046 14.2481C129.666 15.2766 129.119 16.1695 128.407 16.9269C127.694 17.6763 126.795 18.2663 125.71 18.6968C124.633 19.1194 123.433 19.3307 122.111 19.3307H115.66ZM118.345 4.633V16.8791H122.111C123.029 16.8791 123.861 16.7196 124.605 16.4007C125.35 16.0818 125.963 15.6473 126.446 15.0972C126.93 14.5471 127.302 13.9132 127.563 13.1957C127.824 12.4702 127.955 11.6968 127.955 10.8756C127.955 9.01799 127.444 7.51513 126.423 6.36706C125.409 5.21102 123.972 4.633 122.111 4.633H118.345Z" stroke="#174924" stroke-width="0.318988" mask="url(#path-2-outside-1_836_1907)"/>
<path d="M67.3737 35.2482C67.3737 37.2174 67.9082 38.7721 68.9773 39.9122C70.0465 41.0523 71.4561 41.6223 73.2063 41.6223C74.9803 41.6223 76.39 41.1081 77.4353 40.0796C78.4807 39.0511 79.138 37.7675 79.4073 36.2288L81.8425 37.2095C81.3911 39.2584 80.4051 40.9128 78.8846 42.1725C77.372 43.4321 75.4792 44.062 73.2063 44.062C71.5353 44.0859 70.0346 43.7112 68.7041 42.9378C67.3737 42.1565 66.3481 41.0922 65.6274 39.7448C64.9067 38.3974 64.5543 36.8985 64.5702 35.2482C64.5464 34.0363 64.7563 32.8843 65.1998 31.792C65.6512 30.6918 66.261 29.747 67.0292 28.9577C67.7973 28.1684 68.72 27.5465 69.797 27.0921C70.882 26.6297 72.0184 26.4104 73.2063 26.4343C74.2596 26.4343 75.2298 26.5898 76.1167 26.9008C77.0037 27.2037 77.7561 27.6223 78.3738 28.1565C78.9994 28.6906 79.5221 29.3005 79.9418 29.9862C80.3616 30.6639 80.6704 31.3974 80.8684 32.1867L78.4332 33.2869C78.1718 31.9554 77.5858 30.8911 76.6751 30.0938C75.7722 29.2886 74.616 28.886 73.2063 28.886C71.5195 28.886 70.1257 29.4719 69.0249 30.6439C67.9241 31.8159 67.3737 33.3507 67.3737 35.2482Z" stroke="#174924" stroke-width="0.318988" mask="url(#path-2-outside-1_836_1907)"/>
<path d="M83.4137 26.6735H86.0865V36.8148C86.0865 38.2738 86.4904 39.4179 87.2982 40.2471C88.106 41.0762 89.1791 41.4908 90.5175 41.4908C91.8559 41.4908 92.9289 41.0762 93.7367 40.2471C94.5445 39.4179 94.9484 38.2738 94.9484 36.8148V26.6735H97.6212V36.9703C97.6212 39.091 96.9758 40.8051 95.6849 42.1127C94.394 43.4122 92.6716 44.062 90.5175 44.062C88.3634 44.062 86.6409 43.4122 85.35 42.1127C84.0592 40.8051 83.4137 39.091 83.4137 36.9703V26.6735Z" stroke="#174924" stroke-width="0.318988" mask="url(#path-2-outside-1_836_1907)"/>
<path d="M113.911 43.8228H110.62C110.414 43.4162 110.26 42.9418 110.157 42.3997C110.062 41.8575 110.014 41.0244 110.014 39.9002C110.014 38.7522 109.765 37.935 109.266 37.4486C108.767 36.9623 108.003 36.7191 106.973 36.7191H102.839V43.8228H100.155V26.6735H108.316C109.987 26.6735 111.313 27.116 112.295 28.001C113.285 28.878 113.78 29.9902 113.78 31.3376C113.78 32.4139 113.483 33.3427 112.889 34.124C112.295 34.8974 111.46 35.4754 110.383 35.8581C111.23 36.1929 111.875 36.6872 112.319 37.341C112.762 37.9948 113.008 38.8558 113.055 39.9242C113.095 40.841 113.158 41.5865 113.246 42.1605C113.341 42.6309 113.562 43.0534 113.911 43.4282V43.8228ZM102.839 34.1479H108.066C108.993 34.1479 109.709 33.9367 110.216 33.5141C110.731 33.0836 110.988 32.4777 110.988 31.6963C110.988 30.915 110.731 30.3131 110.216 29.8905C109.709 29.46 108.993 29.2447 108.066 29.2447H102.839V34.1479Z" stroke="#174924" stroke-width="0.318988" mask="url(#path-2-outside-1_836_1907)"/>
<path d="M114.567 43.8228L121.564 26.6735H125.27L132.279 43.8228H129.262L127.623 39.6611H119.212L117.585 43.8228H114.567ZM120.162 37.2095H126.672L123.417 28.9099L120.162 37.2095Z" stroke="#174924" stroke-width="0.318988" mask="url(#path-2-outside-1_836_1907)"/>
<path d="M144.637 26.6735V29.2447H138.436V43.8228H135.763V29.2447H129.55V26.6735H144.637Z" stroke="#174924" stroke-width="0.318988" mask="url(#path-2-outside-1_836_1907)"/>
<path d="M153.359 26.4343C154.555 26.4104 155.703 26.6337 156.804 27.1041C157.913 27.5744 158.867 28.2083 159.667 29.0055C160.467 29.8028 161.1 30.7476 161.568 31.8398C162.035 32.9321 162.257 34.0682 162.233 35.2482C162.257 36.4281 162.035 37.5682 161.568 38.6685C161.1 39.7607 160.467 40.7055 159.667 41.5028C158.867 42.3 157.913 42.9339 156.804 43.4042C155.703 43.8667 154.555 44.0859 153.359 44.062C152.163 44.0859 151.011 43.8667 149.902 43.4042C148.802 42.9339 147.851 42.3 147.051 41.5028C146.251 40.7055 145.614 39.7607 145.139 38.6685C144.672 37.5682 144.45 36.4281 144.474 35.2482C144.45 34.0762 144.672 32.9441 145.139 31.8518C145.614 30.7516 146.251 29.8028 147.051 29.0055C147.851 28.2083 148.802 27.5744 149.902 27.1041C151.011 26.6337 152.163 26.4104 153.359 26.4343ZM153.359 41.4908C154.476 41.4908 155.493 41.2317 156.412 40.7135C157.339 40.1873 158.075 39.4458 158.622 38.4891C159.168 37.5323 159.441 36.452 159.441 35.2482C159.441 33.4224 158.859 31.9275 157.695 30.7635C156.539 29.5915 155.094 29.0055 153.359 29.0055C151.625 29.0055 150.176 29.5955 149.011 30.7755C147.855 31.9554 147.277 33.4543 147.277 35.2721C147.277 37.0978 147.863 38.5927 149.035 39.7567C150.207 40.9128 151.649 41.4908 153.359 41.4908Z" stroke="#174924" stroke-width="0.318988" mask="url(#path-2-outside-1_836_1907)"/>
<path d="M178 43.8228H174.709C174.503 43.4162 174.349 42.9418 174.246 42.3997C174.151 41.8575 174.103 41.0244 174.103 39.9002C174.103 38.7522 173.854 37.935 173.355 37.4486C172.856 36.9623 172.092 36.7191 171.062 36.7191H166.928V43.8228H164.244V26.6735H172.405C174.076 26.6735 175.402 27.116 176.384 28.001C177.374 28.878 177.869 29.9902 177.869 31.3376C177.869 32.4139 177.572 33.3427 176.978 34.124C176.384 34.8974 175.549 35.4754 174.472 35.8581C175.319 36.1929 175.964 36.6872 176.408 37.341C176.851 37.9948 177.097 38.8558 177.144 39.9242C177.184 40.841 177.247 41.5865 177.335 42.1605C177.43 42.6309 177.651 43.0534 178 43.4282V43.8228ZM166.928 34.1479H172.155C173.082 34.1479 173.798 33.9367 174.305 33.5141C174.82 33.0836 175.077 32.4777 175.077 31.6963C175.077 30.915 174.82 30.3131 174.305 29.8905C173.798 29.46 173.082 29.2447 172.155 29.2447H166.928V34.1479Z" stroke="#174924" stroke-width="0.318988" mask="url(#path-2-outside-1_836_1907)"/>
</svg>
