<svg width="179" height="48" viewBox="0 0 179 48" fill="none" xmlns="http://www.w3.org/2000/svg">
<path fill-rule="evenodd" clip-rule="evenodd" d="M17.1751 4.73261L25.149 0.796336C25.9424 0.404656 26.3391 0.208815 26.7695 0.211701C27.1998 0.214587 27.5885 0.413021 28.366 0.809889C30.2484 1.77074 33.5012 3.46009 36.5453 5.18196C35.8626 5.81869 35.0654 6.5727 34.2046 7.40661C31.792 9.74378 28.8412 12.7459 26.5162 15.5667L17.1751 4.73261ZM14.2253 6.1888L4.28145 11.0976C2.3162 12.0677 1.33357 12.5528 1.16189 13.4366C0.990202 14.3204 1.71976 15.1381 3.17888 16.7734L16.0339 31.181C16.6944 30.0829 17.5584 28.6643 18.5366 27.1021C20.3155 24.261 22.4965 20.9051 24.5267 18.1367L14.2253 6.1888ZM36.4207 9.6942C37.5805 8.57067 38.6231 7.59455 39.4178 6.86183C42.2381 8.5741 45.9654 11.0087 48.7424 12.8487C50.5266 14.0309 51.4186 14.622 51.495 15.4942C51.5713 16.3663 50.7794 17.1188 49.1954 18.6236C46.4449 21.2368 42.6157 25.0494 39.9212 28.4375C37.1222 31.9569 33.6622 37.3887 31.3453 41.1655C30.1395 43.1311 29.5366 44.114 28.6274 44.1952C27.7181 44.2765 26.9577 43.4242 25.4369 41.7198L18.2553 33.6708C18.3356 33.5361 18.4211 33.3931 18.5114 33.2422C19.1888 32.1112 20.1402 30.5425 21.236 28.7924C23.4383 25.2751 26.1858 21.0864 28.4556 18.2324C30.7197 15.3856 33.838 12.1962 36.4207 9.6942Z" fill="#174924"/>
<mask id="path-2-outside-1_769_1162" maskUnits="userSpaceOnUse" x="63.5688" y="1.1814" width="115" height="44" fill="black">
<rect fill="white" x="63.5688" y="1.1814" width="115" height="44"/>
<path d="M65.2953 2.1814H67.98V16.7595H78.1961V19.3307H65.2953V2.1814Z"/>
<path d="M78.6863 19.3307L85.6831 2.1814H89.3894L96.3982 19.3307H93.3808L91.7415 15.1689H83.3311L81.7036 19.3307H78.6863ZM84.2814 12.7173H90.7912L87.5363 4.41774L84.2814 12.7173Z"/>
<path d="M100.345 4.14268V19.3307H97.6605V2.1814H102.317L110.241 17.3933V2.1814H112.925V19.3307H108.269L100.345 4.14268Z"/>
<path d="M115.661 19.3307V2.1814H122.111C123.901 2.1814 125.445 2.55611 126.744 3.30555C128.043 4.05498 129.013 5.07947 129.654 6.37902C130.304 7.6706 130.628 9.16947 130.628 10.8756C130.628 12.0875 130.434 13.2116 130.046 14.2481C129.666 15.2766 129.12 16.1695 128.407 16.9269C127.694 17.6763 126.795 18.2663 125.71 18.6968C124.633 19.1194 123.434 19.3307 122.111 19.3307H115.661ZM118.345 4.633V16.8791H122.111C123.03 16.8791 123.861 16.7196 124.606 16.4007C125.35 16.0818 125.964 15.6473 126.447 15.0972C126.93 14.5471 127.302 13.9132 127.564 13.1957C127.825 12.4702 127.956 11.6968 127.956 10.8756C127.956 9.01799 127.445 7.51513 126.423 6.36706C125.41 5.21102 123.972 4.633 122.111 4.633H118.345Z"/>
<path d="M67.3741 35.2482C67.3741 37.2174 67.9087 38.7721 68.9778 39.9122C70.047 41.0523 71.4566 41.6223 73.2068 41.6223C74.9808 41.6223 76.3904 41.1081 77.4358 40.0796C78.4812 39.0511 79.1385 37.7675 79.4078 36.2288L81.843 37.2095C81.3916 39.2584 80.4056 40.9128 78.8851 42.1725C77.3725 43.4321 75.4797 44.062 73.2068 44.062C71.5358 44.0859 70.0351 43.7112 68.7046 42.9378C67.3741 42.1565 66.3486 41.0922 65.6279 39.7448C64.9072 38.3974 64.5548 36.8985 64.5707 35.2482C64.5469 34.0363 64.7568 32.8843 65.2003 31.792C65.6517 30.6918 66.2615 29.747 67.0296 28.9577C67.7978 28.1684 68.7205 27.5465 69.7975 27.0921C70.8825 26.6297 72.0189 26.4104 73.2068 26.4343C74.2601 26.4343 75.2302 26.5898 76.1172 26.9008C77.0042 27.2037 77.7565 27.6223 78.3743 28.1565C78.9999 28.6906 79.5226 29.3005 79.9423 29.9862C80.362 30.6639 80.6709 31.3974 80.8689 32.1867L78.4337 33.2869C78.1723 31.9554 77.5863 30.8911 76.6755 30.0938C75.7727 29.2886 74.6165 28.886 73.2068 28.886C71.52 28.886 70.1262 29.4719 69.0254 30.6439C67.9245 31.8159 67.3741 33.3507 67.3741 35.2482Z"/>
<path d="M83.4142 26.6735H86.087V36.8148C86.087 38.2738 86.4909 39.4179 87.2987 40.2471C88.1065 41.0762 89.1796 41.4908 90.518 41.4908C91.8563 41.4908 92.9294 41.0762 93.7372 40.2471C94.545 39.4179 94.9489 38.2738 94.9489 36.8148V26.6735H97.6217V36.9703C97.6217 39.091 96.9763 40.8051 95.6854 42.1127C94.3945 43.4122 92.6721 44.062 90.518 44.062C88.3639 44.062 86.6414 43.4122 85.3505 42.1127C84.0596 40.8051 83.4142 39.091 83.4142 36.9703V26.6735Z"/>
<path d="M113.911 43.8228H110.621C110.415 43.4162 110.26 42.9418 110.157 42.3997C110.062 41.8575 110.015 41.0244 110.015 39.9002C110.015 38.7522 109.765 37.935 109.266 37.4486C108.768 36.9623 108.003 36.7191 106.974 36.7191H102.84V43.8228H100.155V26.6735H108.316C109.987 26.6735 111.314 27.116 112.296 28.001C113.286 28.878 113.781 29.9902 113.781 31.3376C113.781 32.4139 113.484 33.3427 112.89 34.124C112.296 34.8974 111.46 35.4754 110.383 35.8581C111.231 36.1929 111.876 36.6872 112.319 37.341C112.763 37.9948 113.008 38.8558 113.056 39.9242C113.096 40.841 113.159 41.5865 113.246 42.1605C113.341 42.6309 113.563 43.0534 113.911 43.4282V43.8228ZM102.84 34.1479H108.067C108.993 34.1479 109.71 33.9367 110.217 33.5141C110.732 33.0836 110.989 32.4777 110.989 31.6963C110.989 30.915 110.732 30.3131 110.217 29.8905C109.71 29.46 108.993 29.2447 108.067 29.2447H102.84V34.1479Z"/>
<path d="M114.568 43.8228L121.565 26.6735H125.271L132.28 43.8228H129.262L127.623 39.6611H119.213L117.585 43.8228H114.568ZM120.163 37.2095H126.673L123.418 28.9099L120.163 37.2095Z"/>
<path d="M144.637 26.6735V29.2447H138.436V43.8228H135.763V29.2447H129.551V26.6735H144.637Z"/>
<path d="M153.36 26.4343C154.555 26.4104 155.704 26.6337 156.805 27.1041C157.913 27.5744 158.868 28.2083 159.667 29.0055C160.467 29.8028 161.101 30.7476 161.568 31.8398C162.035 32.9321 162.257 34.0682 162.233 35.2482C162.257 36.4281 162.035 37.5682 161.568 38.6685C161.101 39.7607 160.467 40.7055 159.667 41.5028C158.868 42.3 157.913 42.9339 156.805 43.4042C155.704 43.8667 154.555 44.0859 153.36 44.062C152.164 44.0859 151.012 43.8667 149.903 43.4042C148.802 42.9339 147.852 42.3 147.052 41.5028C146.252 40.7055 145.614 39.7607 145.139 38.6685C144.672 37.5682 144.45 36.4281 144.474 35.2482C144.45 34.0762 144.672 32.9441 145.139 31.8518C145.614 30.7516 146.252 29.8028 147.052 29.0055C147.852 28.2083 148.802 27.5744 149.903 27.1041C151.012 26.6337 152.164 26.4104 153.36 26.4343ZM153.36 41.4908C154.476 41.4908 155.494 41.2317 156.413 40.7135C157.339 40.1873 158.076 39.4458 158.622 38.4891C159.169 37.5323 159.442 36.452 159.442 35.2482C159.442 33.4224 158.86 31.9275 157.696 30.7635C156.539 29.5915 155.094 29.0055 153.36 29.0055C151.625 29.0055 150.176 29.5955 149.012 30.7755C147.856 31.9554 147.278 33.4543 147.278 35.2721C147.278 37.0978 147.864 38.5927 149.036 39.7567C150.208 40.9128 151.649 41.4908 153.36 41.4908Z"/>
<path d="M178 43.8228H174.71C174.504 43.4162 174.349 42.9418 174.246 42.3997C174.151 41.8575 174.104 41.0244 174.104 39.9002C174.104 38.7522 173.854 37.935 173.355 37.4486C172.857 36.9623 172.092 36.7191 171.063 36.7191H166.929V43.8228H164.244V26.6735H172.405C174.076 26.6735 175.403 27.116 176.385 28.001C177.375 28.878 177.87 29.9902 177.87 31.3376C177.87 32.4139 177.573 33.3427 176.979 34.124C176.385 34.8974 175.549 35.4754 174.472 35.8581C175.32 36.1929 175.965 36.6872 176.408 37.341C176.852 37.9948 177.097 38.8558 177.145 39.9242C177.185 40.841 177.248 41.5865 177.335 42.1605C177.43 42.6309 177.652 43.0534 178 43.4282V43.8228ZM166.929 34.1479H172.156C173.082 34.1479 173.799 33.9367 174.306 33.5141C174.821 33.0836 175.078 32.4777 175.078 31.6963C175.078 30.915 174.821 30.3131 174.306 29.8905C173.799 29.46 173.082 29.2447 172.156 29.2447H166.929V34.1479Z"/>
</mask>
<path d="M65.2953 2.1814H67.98V16.7595H78.1961V19.3307H65.2953V2.1814Z" fill="#174924"/>
<path d="M78.6863 19.3307L85.6831 2.1814H89.3894L96.3982 19.3307H93.3808L91.7415 15.1689H83.3311L81.7036 19.3307H78.6863ZM84.2814 12.7173H90.7912L87.5363 4.41774L84.2814 12.7173Z" fill="#174924"/>
<path d="M100.345 4.14268V19.3307H97.6605V2.1814H102.317L110.241 17.3933V2.1814H112.925V19.3307H108.269L100.345 4.14268Z" fill="#174924"/>
<path d="M115.661 19.3307V2.1814H122.111C123.901 2.1814 125.445 2.55611 126.744 3.30555C128.043 4.05498 129.013 5.07947 129.654 6.37902C130.304 7.6706 130.628 9.16947 130.628 10.8756C130.628 12.0875 130.434 13.2116 130.046 14.2481C129.666 15.2766 129.12 16.1695 128.407 16.9269C127.694 17.6763 126.795 18.2663 125.71 18.6968C124.633 19.1194 123.434 19.3307 122.111 19.3307H115.661ZM118.345 4.633V16.8791H122.111C123.03 16.8791 123.861 16.7196 124.606 16.4007C125.35 16.0818 125.964 15.6473 126.447 15.0972C126.93 14.5471 127.302 13.9132 127.564 13.1957C127.825 12.4702 127.956 11.6968 127.956 10.8756C127.956 9.01799 127.445 7.51513 126.423 6.36706C125.41 5.21102 123.972 4.633 122.111 4.633H118.345Z" fill="#174924"/>
<path d="M67.3741 35.2482C67.3741 37.2174 67.9087 38.7721 68.9778 39.9122C70.047 41.0523 71.4566 41.6223 73.2068 41.6223C74.9808 41.6223 76.3904 41.1081 77.4358 40.0796C78.4812 39.0511 79.1385 37.7675 79.4078 36.2288L81.843 37.2095C81.3916 39.2584 80.4056 40.9128 78.8851 42.1725C77.3725 43.4321 75.4797 44.062 73.2068 44.062C71.5358 44.0859 70.0351 43.7112 68.7046 42.9378C67.3741 42.1565 66.3486 41.0922 65.6279 39.7448C64.9072 38.3974 64.5548 36.8985 64.5707 35.2482C64.5469 34.0363 64.7568 32.8843 65.2003 31.792C65.6517 30.6918 66.2615 29.747 67.0296 28.9577C67.7978 28.1684 68.7205 27.5465 69.7975 27.0921C70.8825 26.6297 72.0189 26.4104 73.2068 26.4343C74.2601 26.4343 75.2302 26.5898 76.1172 26.9008C77.0042 27.2037 77.7565 27.6223 78.3743 28.1565C78.9999 28.6906 79.5226 29.3005 79.9423 29.9862C80.362 30.6639 80.6709 31.3974 80.8689 32.1867L78.4337 33.2869C78.1723 31.9554 77.5863 30.8911 76.6755 30.0938C75.7727 29.2886 74.6165 28.886 73.2068 28.886C71.52 28.886 70.1262 29.4719 69.0254 30.6439C67.9245 31.8159 67.3741 33.3507 67.3741 35.2482Z" fill="#174924"/>
<path d="M83.4142 26.6735H86.087V36.8148C86.087 38.2738 86.4909 39.4179 87.2987 40.2471C88.1065 41.0762 89.1796 41.4908 90.518 41.4908C91.8563 41.4908 92.9294 41.0762 93.7372 40.2471C94.545 39.4179 94.9489 38.2738 94.9489 36.8148V26.6735H97.6217V36.9703C97.6217 39.091 96.9763 40.8051 95.6854 42.1127C94.3945 43.4122 92.6721 44.062 90.518 44.062C88.3639 44.062 86.6414 43.4122 85.3505 42.1127C84.0596 40.8051 83.4142 39.091 83.4142 36.9703V26.6735Z" fill="#174924"/>
<path d="M113.911 43.8228H110.621C110.415 43.4162 110.26 42.9418 110.157 42.3997C110.062 41.8575 110.015 41.0244 110.015 39.9002C110.015 38.7522 109.765 37.935 109.266 37.4486C108.768 36.9623 108.003 36.7191 106.974 36.7191H102.84V43.8228H100.155V26.6735H108.316C109.987 26.6735 111.314 27.116 112.296 28.001C113.286 28.878 113.781 29.9902 113.781 31.3376C113.781 32.4139 113.484 33.3427 112.89 34.124C112.296 34.8974 111.46 35.4754 110.383 35.8581C111.231 36.1929 111.876 36.6872 112.319 37.341C112.763 37.9948 113.008 38.8558 113.056 39.9242C113.096 40.841 113.159 41.5865 113.246 42.1605C113.341 42.6309 113.563 43.0534 113.911 43.4282V43.8228ZM102.84 34.1479H108.067C108.993 34.1479 109.71 33.9367 110.217 33.5141C110.732 33.0836 110.989 32.4777 110.989 31.6963C110.989 30.915 110.732 30.3131 110.217 29.8905C109.71 29.46 108.993 29.2447 108.067 29.2447H102.84V34.1479Z" fill="#174924"/>
<path d="M114.568 43.8228L121.565 26.6735H125.271L132.28 43.8228H129.262L127.623 39.6611H119.213L117.585 43.8228H114.568ZM120.163 37.2095H126.673L123.418 28.9099L120.163 37.2095Z" fill="#174924"/>
<path d="M144.637 26.6735V29.2447H138.436V43.8228H135.763V29.2447H129.551V26.6735H144.637Z" fill="#174924"/>
<path d="M153.36 26.4343C154.555 26.4104 155.704 26.6337 156.805 27.1041C157.913 27.5744 158.868 28.2083 159.667 29.0055C160.467 29.8028 161.101 30.7476 161.568 31.8398C162.035 32.9321 162.257 34.0682 162.233 35.2482C162.257 36.4281 162.035 37.5682 161.568 38.6685C161.101 39.7607 160.467 40.7055 159.667 41.5028C158.868 42.3 157.913 42.9339 156.805 43.4042C155.704 43.8667 154.555 44.0859 153.36 44.062C152.164 44.0859 151.012 43.8667 149.903 43.4042C148.802 42.9339 147.852 42.3 147.052 41.5028C146.252 40.7055 145.614 39.7607 145.139 38.6685C144.672 37.5682 144.45 36.4281 144.474 35.2482C144.45 34.0762 144.672 32.9441 145.139 31.8518C145.614 30.7516 146.252 29.8028 147.052 29.0055C147.852 28.2083 148.802 27.5744 149.903 27.1041C151.012 26.6337 152.164 26.4104 153.36 26.4343ZM153.36 41.4908C154.476 41.4908 155.494 41.2317 156.413 40.7135C157.339 40.1873 158.076 39.4458 158.622 38.4891C159.169 37.5323 159.442 36.452 159.442 35.2482C159.442 33.4224 158.86 31.9275 157.696 30.7635C156.539 29.5915 155.094 29.0055 153.36 29.0055C151.625 29.0055 150.176 29.5955 149.012 30.7755C147.856 31.9554 147.278 33.4543 147.278 35.2721C147.278 37.0978 147.864 38.5927 149.036 39.7567C150.208 40.9128 151.649 41.4908 153.36 41.4908Z" fill="#174924"/>
<path d="M178 43.8228H174.71C174.504 43.4162 174.349 42.9418 174.246 42.3997C174.151 41.8575 174.104 41.0244 174.104 39.9002C174.104 38.7522 173.854 37.935 173.355 37.4486C172.857 36.9623 172.092 36.7191 171.063 36.7191H166.929V43.8228H164.244V26.6735H172.405C174.076 26.6735 175.403 27.116 176.385 28.001C177.375 28.878 177.87 29.9902 177.87 31.3376C177.87 32.4139 177.573 33.3427 176.979 34.124C176.385 34.8974 175.549 35.4754 174.472 35.8581C175.32 36.1929 175.965 36.6872 176.408 37.341C176.852 37.9948 177.097 38.8558 177.145 39.9242C177.185 40.841 177.248 41.5865 177.335 42.1605C177.43 42.6309 177.652 43.0534 178 43.4282V43.8228ZM166.929 34.1479H172.156C173.082 34.1479 173.799 33.9367 174.306 33.5141C174.821 33.0836 175.078 32.4777 175.078 31.6963C175.078 30.915 174.821 30.3131 174.306 29.8905C173.799 29.46 173.082 29.2447 172.156 29.2447H166.929V34.1479Z" fill="#174924"/>
<path d="M65.2953 2.1814H67.98V16.7595H78.1961V19.3307H65.2953V2.1814Z" stroke="#174924" stroke-width="0.318988" mask="url(#path-2-outside-1_769_1162)"/>
<path d="M78.6863 19.3307L85.6831 2.1814H89.3894L96.3982 19.3307H93.3808L91.7415 15.1689H83.3311L81.7036 19.3307H78.6863ZM84.2814 12.7173H90.7912L87.5363 4.41774L84.2814 12.7173Z" stroke="#174924" stroke-width="0.318988" mask="url(#path-2-outside-1_769_1162)"/>
<path d="M100.345 4.14268V19.3307H97.6605V2.1814H102.317L110.241 17.3933V2.1814H112.925V19.3307H108.269L100.345 4.14268Z" stroke="#174924" stroke-width="0.318988" mask="url(#path-2-outside-1_769_1162)"/>
<path d="M115.661 19.3307V2.1814H122.111C123.901 2.1814 125.445 2.55611 126.744 3.30555C128.043 4.05498 129.013 5.07947 129.654 6.37902C130.304 7.6706 130.628 9.16947 130.628 10.8756C130.628 12.0875 130.434 13.2116 130.046 14.2481C129.666 15.2766 129.12 16.1695 128.407 16.9269C127.694 17.6763 126.795 18.2663 125.71 18.6968C124.633 19.1194 123.434 19.3307 122.111 19.3307H115.661ZM118.345 4.633V16.8791H122.111C123.03 16.8791 123.861 16.7196 124.606 16.4007C125.35 16.0818 125.964 15.6473 126.447 15.0972C126.93 14.5471 127.302 13.9132 127.564 13.1957C127.825 12.4702 127.956 11.6968 127.956 10.8756C127.956 9.01799 127.445 7.51513 126.423 6.36706C125.41 5.21102 123.972 4.633 122.111 4.633H118.345Z" stroke="#174924" stroke-width="0.318988" mask="url(#path-2-outside-1_769_1162)"/>
<path d="M67.3741 35.2482C67.3741 37.2174 67.9087 38.7721 68.9778 39.9122C70.047 41.0523 71.4566 41.6223 73.2068 41.6223C74.9808 41.6223 76.3904 41.1081 77.4358 40.0796C78.4812 39.0511 79.1385 37.7675 79.4078 36.2288L81.843 37.2095C81.3916 39.2584 80.4056 40.9128 78.8851 42.1725C77.3725 43.4321 75.4797 44.062 73.2068 44.062C71.5358 44.0859 70.0351 43.7112 68.7046 42.9378C67.3741 42.1565 66.3486 41.0922 65.6279 39.7448C64.9072 38.3974 64.5548 36.8985 64.5707 35.2482C64.5469 34.0363 64.7568 32.8843 65.2003 31.792C65.6517 30.6918 66.2615 29.747 67.0296 28.9577C67.7978 28.1684 68.7205 27.5465 69.7975 27.0921C70.8825 26.6297 72.0189 26.4104 73.2068 26.4343C74.2601 26.4343 75.2302 26.5898 76.1172 26.9008C77.0042 27.2037 77.7565 27.6223 78.3743 28.1565C78.9999 28.6906 79.5226 29.3005 79.9423 29.9862C80.362 30.6639 80.6709 31.3974 80.8689 32.1867L78.4337 33.2869C78.1723 31.9554 77.5863 30.8911 76.6755 30.0938C75.7727 29.2886 74.6165 28.886 73.2068 28.886C71.52 28.886 70.1262 29.4719 69.0254 30.6439C67.9245 31.8159 67.3741 33.3507 67.3741 35.2482Z" stroke="#174924" stroke-width="0.318988" mask="url(#path-2-outside-1_769_1162)"/>
<path d="M83.4142 26.6735H86.087V36.8148C86.087 38.2738 86.4909 39.4179 87.2987 40.2471C88.1065 41.0762 89.1796 41.4908 90.518 41.4908C91.8563 41.4908 92.9294 41.0762 93.7372 40.2471C94.545 39.4179 94.9489 38.2738 94.9489 36.8148V26.6735H97.6217V36.9703C97.6217 39.091 96.9763 40.8051 95.6854 42.1127C94.3945 43.4122 92.6721 44.062 90.518 44.062C88.3639 44.062 86.6414 43.4122 85.3505 42.1127C84.0596 40.8051 83.4142 39.091 83.4142 36.9703V26.6735Z" stroke="#174924" stroke-width="0.318988" mask="url(#path-2-outside-1_769_1162)"/>
<path d="M113.911 43.8228H110.621C110.415 43.4162 110.26 42.9418 110.157 42.3997C110.062 41.8575 110.015 41.0244 110.015 39.9002C110.015 38.7522 109.765 37.935 109.266 37.4486C108.768 36.9623 108.003 36.7191 106.974 36.7191H102.84V43.8228H100.155V26.6735H108.316C109.987 26.6735 111.314 27.116 112.296 28.001C113.286 28.878 113.781 29.9902 113.781 31.3376C113.781 32.4139 113.484 33.3427 112.89 34.124C112.296 34.8974 111.46 35.4754 110.383 35.8581C111.231 36.1929 111.876 36.6872 112.319 37.341C112.763 37.9948 113.008 38.8558 113.056 39.9242C113.096 40.841 113.159 41.5865 113.246 42.1605C113.341 42.6309 113.563 43.0534 113.911 43.4282V43.8228ZM102.84 34.1479H108.067C108.993 34.1479 109.71 33.9367 110.217 33.5141C110.732 33.0836 110.989 32.4777 110.989 31.6963C110.989 30.915 110.732 30.3131 110.217 29.8905C109.71 29.46 108.993 29.2447 108.067 29.2447H102.84V34.1479Z" stroke="#174924" stroke-width="0.318988" mask="url(#path-2-outside-1_769_1162)"/>
<path d="M114.568 43.8228L121.565 26.6735H125.271L132.28 43.8228H129.262L127.623 39.6611H119.213L117.585 43.8228H114.568ZM120.163 37.2095H126.673L123.418 28.9099L120.163 37.2095Z" stroke="#174924" stroke-width="0.318988" mask="url(#path-2-outside-1_769_1162)"/>
<path d="M144.637 26.6735V29.2447H138.436V43.8228H135.763V29.2447H129.551V26.6735H144.637Z" stroke="#174924" stroke-width="0.318988" mask="url(#path-2-outside-1_769_1162)"/>
<path d="M153.36 26.4343C154.555 26.4104 155.704 26.6337 156.805 27.1041C157.913 27.5744 158.868 28.2083 159.667 29.0055C160.467 29.8028 161.101 30.7476 161.568 31.8398C162.035 32.9321 162.257 34.0682 162.233 35.2482C162.257 36.4281 162.035 37.5682 161.568 38.6685C161.101 39.7607 160.467 40.7055 159.667 41.5028C158.868 42.3 157.913 42.9339 156.805 43.4042C155.704 43.8667 154.555 44.0859 153.36 44.062C152.164 44.0859 151.012 43.8667 149.903 43.4042C148.802 42.9339 147.852 42.3 147.052 41.5028C146.252 40.7055 145.614 39.7607 145.139 38.6685C144.672 37.5682 144.45 36.4281 144.474 35.2482C144.45 34.0762 144.672 32.9441 145.139 31.8518C145.614 30.7516 146.252 29.8028 147.052 29.0055C147.852 28.2083 148.802 27.5744 149.903 27.1041C151.012 26.6337 152.164 26.4104 153.36 26.4343ZM153.36 41.4908C154.476 41.4908 155.494 41.2317 156.413 40.7135C157.339 40.1873 158.076 39.4458 158.622 38.4891C159.169 37.5323 159.442 36.452 159.442 35.2482C159.442 33.4224 158.86 31.9275 157.696 30.7635C156.539 29.5915 155.094 29.0055 153.36 29.0055C151.625 29.0055 150.176 29.5955 149.012 30.7755C147.856 31.9554 147.278 33.4543 147.278 35.2721C147.278 37.0978 147.864 38.5927 149.036 39.7567C150.208 40.9128 151.649 41.4908 153.36 41.4908Z" stroke="#174924" stroke-width="0.318988" mask="url(#path-2-outside-1_769_1162)"/>
<path d="M178 43.8228H174.71C174.504 43.4162 174.349 42.9418 174.246 42.3997C174.151 41.8575 174.104 41.0244 174.104 39.9002C174.104 38.7522 173.854 37.935 173.355 37.4486C172.857 36.9623 172.092 36.7191 171.063 36.7191H166.929V43.8228H164.244V26.6735H172.405C174.076 26.6735 175.403 27.116 176.385 28.001C177.375 28.878 177.87 29.9902 177.87 31.3376C177.87 32.4139 177.573 33.3427 176.979 34.124C176.385 34.8974 175.549 35.4754 174.472 35.8581C175.32 36.1929 175.965 36.6872 176.408 37.341C176.852 37.9948 177.097 38.8558 177.145 39.9242C177.185 40.841 177.248 41.5865 177.335 42.1605C177.43 42.6309 177.652 43.0534 178 43.4282V43.8228ZM166.929 34.1479H172.156C173.082 34.1479 173.799 33.9367 174.306 33.5141C174.821 33.0836 175.078 32.4777 175.078 31.6963C175.078 30.915 174.821 30.3131 174.306 29.8905C173.799 29.46 173.082 29.2447 172.156 29.2447H166.929V34.1479Z" stroke="#174924" stroke-width="0.318988" mask="url(#path-2-outside-1_769_1162)"/>
</svg>
