<svg width="260" height="164" viewBox="0 0 260 164" fill="none" xmlns="http://www.w3.org/2000/svg">
<path d="M4.738 5.004H6.6L10.45 15H8.574L7.636 12.354H3.646L2.708 15H0.902L4.738 5.004ZM4.122 11.024H7.174L5.676 6.726H5.634L4.122 11.024ZM11.4019 5.004H15.5459C16.3112 5.004 16.9739 5.13467 17.5339 5.396C18.0939 5.65733 18.5512 6.01667 18.9059 6.474C19.2606 6.922 19.5219 7.44933 19.6899 8.056C19.8672 8.66267 19.9559 9.31133 19.9559 10.002C19.9559 10.6927 19.8672 11.3413 19.6899 11.948C19.5219 12.5547 19.2606 13.0867 18.9059 13.544C18.5512 13.992 18.0939 14.3467 17.5339 14.608C16.9739 14.8693 16.3112 15 15.5459 15H11.4019V5.004ZM13.1519 13.572H14.8739C15.5552 13.572 16.1106 13.4833 16.5399 13.306C16.9786 13.1193 17.3192 12.8673 17.5619 12.55C17.8139 12.2233 17.9819 11.8453 18.0659 11.416C18.1592 10.9773 18.2059 10.506 18.2059 10.002C18.2059 9.498 18.1592 9.03133 18.0659 8.602C17.9819 8.16333 17.8139 7.78533 17.5619 7.468C17.3192 7.14133 16.9786 6.88933 16.5399 6.712C16.1106 6.52533 15.5552 6.432 14.8739 6.432H13.1519V13.572ZM21.5054 5.004H25.6494C26.4147 5.004 27.0774 5.13467 27.6374 5.396C28.1974 5.65733 28.6547 6.01667 29.0094 6.474C29.3641 6.922 29.6254 7.44933 29.7934 8.056C29.9707 8.66267 30.0594 9.31133 30.0594 10.002C30.0594 10.6927 29.9707 11.3413 29.7934 11.948C29.6254 12.5547 29.3641 13.0867 29.0094 13.544C28.6547 13.992 28.1974 14.3467 27.6374 14.608C27.0774 14.8693 26.4147 15 25.6494 15H21.5054V5.004ZM23.2554 13.572H24.9774C25.6587 13.572 26.2141 13.4833 26.6434 13.306C27.0821 13.1193 27.4227 12.8673 27.6654 12.55C27.9174 12.2233 28.0854 11.8453 28.1694 11.416C28.2627 10.9773 28.3094 10.506 28.3094 10.002C28.3094 9.498 28.2627 9.03133 28.1694 8.602C28.0854 8.16333 27.9174 7.78533 27.6654 7.468C27.4227 7.14133 27.0821 6.88933 26.6434 6.712C26.2141 6.52533 25.6587 6.432 24.9774 6.432H23.2554V13.572ZM31.6089 5.004H36.3829C37.4843 5.004 38.3103 5.242 38.8609 5.718C39.4116 6.194 39.6869 6.85667 39.6869 7.706C39.6869 8.182 39.6169 8.57867 39.4769 8.896C39.3369 9.204 39.1736 9.456 38.9869 9.652C38.8003 9.83867 38.6136 9.974 38.4269 10.058C38.2496 10.142 38.1189 10.198 38.0349 10.226V10.254C38.1843 10.2727 38.3429 10.3193 38.5109 10.394C38.6883 10.4687 38.8516 10.59 39.0009 10.758C39.1503 10.9167 39.2716 11.1267 39.3649 11.388C39.4676 11.6493 39.5189 11.976 39.5189 12.368C39.5189 12.956 39.5609 13.4927 39.6449 13.978C39.7383 14.454 39.8783 14.7947 40.0649 15H38.1889C38.0583 14.7853 37.9789 14.5473 37.9509 14.286C37.9323 14.0247 37.9229 13.7727 37.9229 13.53C37.9229 13.0727 37.8949 12.6807 37.8389 12.354C37.7829 12.018 37.6803 11.7427 37.5309 11.528C37.3816 11.304 37.1763 11.1407 36.9149 11.038C36.6629 10.9353 36.3363 10.884 35.9349 10.884H33.3589V15H31.6089V5.004ZM33.3589 9.554H36.2289C36.7889 9.554 37.2136 9.42333 37.5029 9.162C37.7923 8.89133 37.9369 8.49 37.9369 7.958C37.9369 7.64067 37.8903 7.384 37.7969 7.188C37.7036 6.98267 37.5729 6.824 37.4049 6.712C37.2463 6.6 37.0596 6.52533 36.8449 6.488C36.6396 6.45067 36.4249 6.432 36.2009 6.432H33.3589V9.554ZM41.4663 5.004H48.6623V6.516H43.2163V9.134H48.2563V10.562H43.2163V13.488H48.7603V15H41.4663V5.004ZM51.4327 11.668C51.4327 12.0507 51.498 12.3773 51.6287 12.648C51.7594 12.9187 51.9414 13.1427 52.1747 13.32C52.408 13.488 52.674 13.614 52.9727 13.698C53.2807 13.7727 53.612 13.81 53.9667 13.81C54.3494 13.81 54.676 13.768 54.9467 13.684C55.2174 13.5907 55.4367 13.474 55.6047 13.334C55.7727 13.194 55.894 13.0353 55.9687 12.858C56.0434 12.6713 56.0807 12.4847 56.0807 12.298C56.0807 11.9153 55.992 11.6353 55.8147 11.458C55.6467 11.2713 55.46 11.1407 55.2547 11.066C54.9 10.9353 54.4847 10.814 54.0087 10.702C53.542 10.5807 52.9634 10.4267 52.2727 10.24C51.8434 10.128 51.484 9.98333 51.1947 9.806C50.9147 9.61933 50.6907 9.414 50.5227 9.19C50.3547 8.966 50.2334 8.728 50.1587 8.476C50.0934 8.224 50.0607 7.96733 50.0607 7.706C50.0607 7.202 50.1634 6.768 50.3687 6.404C50.5834 6.03067 50.8634 5.72267 51.2087 5.48C51.554 5.23733 51.946 5.06 52.3847 4.948C52.8234 4.82667 53.2667 4.766 53.7147 4.766C54.2374 4.766 54.7274 4.836 55.1847 4.976C55.6514 5.10667 56.0574 5.30733 56.4027 5.578C56.7574 5.84867 57.0374 6.18467 57.2427 6.586C57.448 6.978 57.5507 7.43533 57.5507 7.958H55.8007C55.754 7.314 55.5347 6.86133 55.1427 6.6C54.7507 6.32933 54.2514 6.194 53.6447 6.194C53.4394 6.194 53.2294 6.21733 53.0147 6.264C52.8 6.30133 52.604 6.37133 52.4267 6.474C52.2494 6.56733 52.1 6.698 51.9787 6.866C51.8667 7.034 51.8107 7.244 51.8107 7.496C51.8107 7.85067 51.918 8.13067 52.1327 8.336C52.3567 8.532 52.646 8.68133 53.0007 8.784C53.038 8.79333 53.1827 8.83533 53.4347 8.91C53.696 8.97533 53.9854 9.05 54.3027 9.134C54.62 9.218 54.928 9.302 55.2267 9.386C55.5347 9.46067 55.754 9.51667 55.8847 9.554C56.2114 9.65667 56.496 9.79667 56.7387 9.974C56.9814 10.1513 57.182 10.3567 57.3407 10.59C57.5087 10.814 57.63 11.0567 57.7047 11.318C57.7887 11.5793 57.8307 11.8407 57.8307 12.102C57.8307 12.662 57.714 13.1427 57.4807 13.544C57.2567 13.936 56.958 14.258 56.5847 14.51C56.2114 14.762 55.7867 14.944 55.3107 15.056C54.8347 15.1773 54.3494 15.238 53.8547 15.238C53.2854 15.238 52.7487 15.168 52.2447 15.028C51.7407 14.888 51.302 14.6733 50.9287 14.384C50.5554 14.0947 50.2567 13.726 50.0327 13.278C49.8087 12.8207 49.692 12.284 49.6827 11.668H51.4327ZM60.5108 11.668C60.5108 12.0507 60.5762 12.3773 60.7068 12.648C60.8375 12.9187 61.0195 13.1427 61.2528 13.32C61.4862 13.488 61.7522 13.614 62.0508 13.698C62.3588 13.7727 62.6902 13.81 63.0448 13.81C63.4275 13.81 63.7542 13.768 64.0248 13.684C64.2955 13.5907 64.5148 13.474 64.6828 13.334C64.8508 13.194 64.9722 13.0353 65.0468 12.858C65.1215 12.6713 65.1588 12.4847 65.1588 12.298C65.1588 11.9153 65.0702 11.6353 64.8928 11.458C64.7248 11.2713 64.5382 11.1407 64.3328 11.066C63.9782 10.9353 63.5628 10.814 63.0868 10.702C62.6202 10.5807 62.0415 10.4267 61.3508 10.24C60.9215 10.128 60.5622 9.98333 60.2728 9.806C59.9928 9.61933 59.7688 9.414 59.6008 9.19C59.4328 8.966 59.3115 8.728 59.2368 8.476C59.1715 8.224 59.1388 7.96733 59.1388 7.706C59.1388 7.202 59.2415 6.768 59.4468 6.404C59.6615 6.03067 59.9415 5.72267 60.2868 5.48C60.6322 5.23733 61.0242 5.06 61.4628 4.948C61.9015 4.82667 62.3448 4.766 62.7928 4.766C63.3155 4.766 63.8055 4.836 64.2628 4.976C64.7295 5.10667 65.1355 5.30733 65.4808 5.578C65.8355 5.84867 66.1155 6.18467 66.3208 6.586C66.5262 6.978 66.6288 7.43533 66.6288 7.958H64.8788C64.8322 7.314 64.6128 6.86133 64.2208 6.6C63.8288 6.32933 63.3295 6.194 62.7228 6.194C62.5175 6.194 62.3075 6.21733 62.0928 6.264C61.8782 6.30133 61.6822 6.37133 61.5048 6.474C61.3275 6.56733 61.1782 6.698 61.0568 6.866C60.9448 7.034 60.8888 7.244 60.8888 7.496C60.8888 7.85067 60.9962 8.13067 61.2108 8.336C61.4348 8.532 61.7242 8.68133 62.0788 8.784C62.1162 8.79333 62.2608 8.83533 62.5128 8.91C62.7742 8.97533 63.0635 9.05 63.3808 9.134C63.6982 9.218 64.0062 9.302 64.3048 9.386C64.6128 9.46067 64.8322 9.51667 64.9628 9.554C65.2895 9.65667 65.5742 9.79667 65.8168 9.974C66.0595 10.1513 66.2602 10.3567 66.4188 10.59C66.5868 10.814 66.7082 11.0567 66.7828 11.318C66.8668 11.5793 66.9088 11.8407 66.9088 12.102C66.9088 12.662 66.7922 13.1427 66.5588 13.544C66.3348 13.936 66.0362 14.258 65.6628 14.51C65.2895 14.762 64.8648 14.944 64.3888 15.056C63.9128 15.1773 63.4275 15.238 62.9328 15.238C62.3635 15.238 61.8268 15.168 61.3228 15.028C60.8188 14.888 60.3802 14.6733 60.0068 14.384C59.6335 14.0947 59.3348 13.726 59.1108 13.278C58.8868 12.8207 58.7702 12.284 58.7608 11.668H60.5108Z" fill="#333333"/>
<path d="M2.092 43.004H8.658V44.124H3.422V47.302H8.014V48.422H3.422V53H2.092V43.004ZM9.89306 45.762H11.0131V47.288H11.0411C11.3304 46.7 11.6851 46.266 12.1051 45.986C12.5251 45.706 13.0571 45.5753 13.7011 45.594V46.854C13.2251 46.854 12.8191 46.9193 12.4831 47.05C12.1471 47.1807 11.8764 47.372 11.6711 47.624C11.4657 47.876 11.3164 48.184 11.2231 48.548C11.1297 48.9027 11.0831 49.3133 11.0831 49.78V53H9.89306V45.762ZM19.3771 48.688C19.3584 48.408 19.2931 48.142 19.1811 47.89C19.0784 47.638 18.9337 47.4233 18.7471 47.246C18.5697 47.0593 18.3551 46.9147 18.1031 46.812C17.8604 46.7 17.5897 46.644 17.2911 46.644C16.9831 46.644 16.7031 46.7 16.4511 46.812C16.2084 46.9147 15.9984 47.0593 15.8211 47.246C15.6437 47.4327 15.5037 47.652 15.4011 47.904C15.2984 48.1467 15.2377 48.408 15.2191 48.688H19.3771ZM20.5251 50.704C20.3664 51.516 20.0164 52.1273 19.4751 52.538C18.9337 52.9487 18.2524 53.154 17.4311 53.154C16.8524 53.154 16.3484 53.0607 15.9191 52.874C15.4991 52.6873 15.1444 52.426 14.8551 52.09C14.5657 51.754 14.3464 51.3527 14.1971 50.886C14.0571 50.4193 13.9777 49.9107 13.9591 49.36C13.9591 48.8093 14.0431 48.3053 14.2111 47.848C14.3791 47.3907 14.6124 46.994 14.9111 46.658C15.2191 46.322 15.5784 46.0607 15.9891 45.874C16.4091 45.6873 16.8664 45.594 17.3611 45.594C18.0051 45.594 18.5371 45.7293 18.9571 46C19.3864 46.2613 19.7271 46.5973 19.9791 47.008C20.2404 47.4187 20.4177 47.8667 20.5111 48.352C20.6137 48.8373 20.6557 49.2993 20.6371 49.738H15.2191C15.2097 50.0553 15.2471 50.3587 15.3311 50.648C15.4151 50.928 15.5504 51.18 15.7371 51.404C15.9237 51.6187 16.1617 51.7913 16.4511 51.922C16.7404 52.0527 17.0811 52.118 17.4731 52.118C17.9771 52.118 18.3877 52.0013 18.7051 51.768C19.0317 51.5347 19.2464 51.18 19.3491 50.704H20.5251ZM26.8966 48.688C26.8779 48.408 26.8126 48.142 26.7006 47.89C26.5979 47.638 26.4533 47.4233 26.2666 47.246C26.0893 47.0593 25.8746 46.9147 25.6226 46.812C25.3799 46.7 25.1093 46.644 24.8106 46.644C24.5026 46.644 24.2226 46.7 23.9706 46.812C23.7279 46.9147 23.5179 47.0593 23.3406 47.246C23.1633 47.4327 23.0233 47.652 22.9206 47.904C22.8179 48.1467 22.7573 48.408 22.7386 48.688H26.8966ZM28.0446 50.704C27.8859 51.516 27.5359 52.1273 26.9946 52.538C26.4533 52.9487 25.7719 53.154 24.9506 53.154C24.3719 53.154 23.8679 53.0607 23.4386 52.874C23.0186 52.6873 22.6639 52.426 22.3746 52.09C22.0853 51.754 21.8659 51.3527 21.7166 50.886C21.5766 50.4193 21.4973 49.9107 21.4786 49.36C21.4786 48.8093 21.5626 48.3053 21.7306 47.848C21.8986 47.3907 22.1319 46.994 22.4306 46.658C22.7386 46.322 23.0979 46.0607 23.5086 45.874C23.9286 45.6873 24.3859 45.594 24.8806 45.594C25.5246 45.594 26.0566 45.7293 26.4766 46C26.9059 46.2613 27.2466 46.5973 27.4986 47.008C27.7599 47.4187 27.9373 47.8667 28.0306 48.352C28.1333 48.8373 28.1753 49.2993 28.1566 49.738H22.7386C22.7293 50.0553 22.7666 50.3587 22.8506 50.648C22.9346 50.928 23.0699 51.18 23.2566 51.404C23.4433 51.6187 23.6813 51.7913 23.9706 51.922C24.2599 52.0527 24.6006 52.118 24.9926 52.118C25.4966 52.118 25.9073 52.0013 26.2246 51.768C26.5513 51.5347 26.7659 51.18 26.8686 50.704H28.0446ZM30.2581 49.444C30.2581 49.78 30.3001 50.1113 30.3841 50.438C30.4775 50.7553 30.6128 51.04 30.7901 51.292C30.9768 51.544 31.2101 51.7447 31.4901 51.894C31.7795 52.0433 32.1155 52.118 32.4981 52.118C32.8995 52.118 33.2401 52.0387 33.5201 51.88C33.8001 51.7213 34.0288 51.516 34.2061 51.264C34.3835 51.0027 34.5095 50.7087 34.5841 50.382C34.6681 50.0553 34.7101 49.724 34.7101 49.388C34.7101 49.0333 34.6681 48.6927 34.5841 48.366C34.5001 48.03 34.3648 47.736 34.1781 47.484C34.0008 47.232 33.7675 47.0313 33.4781 46.882C33.1888 46.7233 32.8388 46.644 32.4281 46.644C32.0268 46.644 31.6861 46.7233 31.4061 46.882C31.1261 47.0407 30.9021 47.2507 30.7341 47.512C30.5661 47.7733 30.4448 48.072 30.3701 48.408C30.2955 48.744 30.2581 49.0893 30.2581 49.444ZM35.8581 53H34.6681V52.02H34.6401C34.4441 52.4213 34.1361 52.7107 33.7161 52.888C33.2961 53.0653 32.8341 53.154 32.3301 53.154C31.7701 53.154 31.2801 53.0513 30.8601 52.846C30.4495 52.6407 30.1041 52.3653 29.8241 52.02C29.5535 51.6747 29.3481 51.2733 29.2081 50.816C29.0681 50.3587 28.9981 49.8733 28.9981 49.36C28.9981 48.8467 29.0635 48.3613 29.1941 47.904C29.3341 47.4467 29.5395 47.05 29.8101 46.714C30.0901 46.3687 30.4355 46.098 30.8461 45.902C31.2661 45.6967 31.7515 45.594 32.3021 45.594C32.4888 45.594 32.6895 45.6127 32.9041 45.65C33.1188 45.6873 33.3335 45.7527 33.5481 45.846C33.7628 45.93 33.9635 46.0467 34.1501 46.196C34.3461 46.336 34.5095 46.5133 34.6401 46.728H34.6681V43.004H35.8581V53ZM38.557 49.388C38.557 49.8267 38.613 50.2187 38.725 50.564C38.8463 50.9 39.0096 51.1847 39.215 51.418C39.4203 51.642 39.6583 51.8147 39.929 51.936C40.209 52.0573 40.503 52.118 40.811 52.118C41.119 52.118 41.4083 52.0573 41.679 51.936C41.959 51.8147 42.2016 51.642 42.407 51.418C42.6123 51.1847 42.771 50.9 42.883 50.564C43.0043 50.2187 43.065 49.8267 43.065 49.388C43.065 48.9493 43.0043 48.562 42.883 48.226C42.771 47.8807 42.6123 47.5913 42.407 47.358C42.2016 47.1247 41.959 46.9473 41.679 46.826C41.4083 46.7047 41.119 46.644 40.811 46.644C40.503 46.644 40.209 46.7047 39.929 46.826C39.6583 46.9473 39.4203 47.1247 39.215 47.358C39.0096 47.5913 38.8463 47.8807 38.725 48.226C38.613 48.562 38.557 48.9493 38.557 49.388ZM37.297 49.388C37.297 48.856 37.3716 48.3613 37.521 47.904C37.6703 47.4373 37.8943 47.036 38.193 46.7C38.4916 46.3547 38.8603 46.084 39.299 45.888C39.7376 45.692 40.2416 45.594 40.811 45.594C41.3896 45.594 41.8936 45.692 42.323 45.888C42.7616 46.084 43.1303 46.3547 43.429 46.7C43.7276 47.036 43.9516 47.4373 44.101 47.904C44.2503 48.3613 44.325 48.856 44.325 49.388C44.325 49.92 44.2503 50.4147 44.101 50.872C43.9516 51.3293 43.7276 51.7307 43.429 52.076C43.1303 52.412 42.7616 52.678 42.323 52.874C41.8936 53.0607 41.3896 53.154 40.811 53.154C40.2416 53.154 39.7376 53.0607 39.299 52.874C38.8603 52.678 38.4916 52.412 38.193 52.076C37.8943 51.7307 37.6703 51.3293 37.521 50.872C37.3716 50.4147 37.297 49.92 37.297 49.388ZM45.728 45.762H46.848V46.826H46.876C47.4174 46.0047 48.1967 45.594 49.214 45.594C49.662 45.594 50.068 45.6873 50.432 45.874C50.796 46.0607 51.0527 46.378 51.202 46.826C51.4447 46.434 51.762 46.1307 52.154 45.916C52.5554 45.7013 52.994 45.594 53.47 45.594C53.834 45.594 54.1607 45.636 54.45 45.72C54.7487 45.7947 55.0007 45.916 55.206 46.084C55.4207 46.252 55.584 46.4713 55.696 46.742C55.8174 47.0033 55.878 47.3207 55.878 47.694V53H54.688V48.254C54.688 48.03 54.6694 47.82 54.632 47.624C54.5947 47.428 54.5247 47.26 54.422 47.12C54.3194 46.9707 54.1747 46.854 53.988 46.77C53.8107 46.686 53.5774 46.644 53.288 46.644C52.7 46.644 52.238 46.812 51.902 47.148C51.566 47.484 51.398 47.932 51.398 48.492V53H50.208V48.254C50.208 48.0207 50.1847 47.806 50.138 47.61C50.1007 47.414 50.0307 47.246 49.928 47.106C49.8254 46.9567 49.6854 46.8447 49.508 46.77C49.34 46.686 49.1207 46.644 48.85 46.644C48.5047 46.644 48.206 46.714 47.954 46.854C47.7114 46.994 47.5107 47.162 47.352 47.358C47.2027 47.554 47.0907 47.7593 47.016 47.974C46.9507 48.1793 46.918 48.352 46.918 48.492V53H45.728V45.762ZM70.7861 53H69.4001L67.1181 44.6H67.0901L64.7801 53H63.3941L60.8321 43.004H62.1901L64.1501 51.32H64.1781L66.4181 43.004H67.8601L70.0721 51.32H70.1001L72.1301 43.004H73.4601L70.7861 53ZM80.4135 52.972C80.2081 53.0933 79.9235 53.154 79.5595 53.154C79.2515 53.154 79.0041 53.07 78.8175 52.902C78.6401 52.7247 78.5515 52.44 78.5515 52.048C78.2248 52.44 77.8421 52.7247 77.4035 52.902C76.9741 53.07 76.5075 53.154 76.0035 53.154C75.6768 53.154 75.3641 53.1167 75.0655 53.042C74.7761 52.9673 74.5241 52.8507 74.3095 52.692C74.0948 52.5333 73.9221 52.328 73.7915 52.076C73.6701 51.8147 73.6095 51.502 73.6095 51.138C73.6095 50.7273 73.6795 50.3913 73.8195 50.13C73.9595 49.8687 74.1415 49.6587 74.3655 49.5C74.5988 49.332 74.8601 49.206 75.1495 49.122C75.4481 49.038 75.7515 48.968 76.0595 48.912C76.3861 48.8467 76.6941 48.8 76.9835 48.772C77.2821 48.7347 77.5435 48.688 77.7675 48.632C77.9915 48.5667 78.1688 48.478 78.2995 48.366C78.4301 48.2447 78.4955 48.072 78.4955 47.848C78.4955 47.5867 78.4441 47.3767 78.3415 47.218C78.2481 47.0593 78.1221 46.938 77.9635 46.854C77.8141 46.77 77.6415 46.714 77.4455 46.686C77.2588 46.658 77.0721 46.644 76.8855 46.644C76.3815 46.644 75.9615 46.742 75.6255 46.938C75.2895 47.1247 75.1075 47.484 75.0795 48.016H73.8895C73.9081 47.568 74.0015 47.19 74.1695 46.882C74.3375 46.574 74.5615 46.3267 74.8415 46.14C75.1215 45.944 75.4388 45.804 75.7935 45.72C76.1575 45.636 76.5448 45.594 76.9555 45.594C77.2821 45.594 77.6041 45.6173 77.9215 45.664C78.2481 45.7107 78.5421 45.8087 78.8035 45.958C79.0648 46.098 79.2748 46.2987 79.4335 46.56C79.5921 46.8213 79.6715 47.162 79.6715 47.582V51.306C79.6715 51.586 79.6855 51.7913 79.7135 51.922C79.7508 52.0527 79.8628 52.118 80.0495 52.118C80.1521 52.118 80.2735 52.0947 80.4135 52.048V52.972ZM78.4815 49.262C78.3321 49.374 78.1361 49.458 77.8935 49.514C77.6508 49.5607 77.3941 49.6027 77.1235 49.64C76.8621 49.668 76.5961 49.7053 76.3255 49.752C76.0548 49.7893 75.8121 49.8547 75.5975 49.948C75.3828 50.0413 75.2055 50.1767 75.0655 50.354C74.9348 50.522 74.8695 50.7553 74.8695 51.054C74.8695 51.25 74.9068 51.418 74.9815 51.558C75.0655 51.6887 75.1681 51.796 75.2895 51.88C75.4201 51.964 75.5695 52.0247 75.7375 52.062C75.9055 52.0993 76.0828 52.118 76.2695 52.118C76.6615 52.118 76.9975 52.0667 77.2775 51.964C77.5575 51.852 77.7861 51.7167 77.9635 51.558C78.1408 51.39 78.2715 51.2127 78.3555 51.026C78.4395 50.83 78.4815 50.648 78.4815 50.48V49.262ZM84.363 53.966C84.223 54.3207 84.083 54.6193 83.943 54.862C83.8123 55.1047 83.663 55.3007 83.495 55.45C83.3363 55.6087 83.1543 55.7207 82.949 55.786C82.753 55.8607 82.5243 55.898 82.263 55.898C82.123 55.898 81.983 55.8887 81.843 55.87C81.703 55.8513 81.5677 55.8187 81.437 55.772V54.68C81.5397 54.7267 81.6563 54.764 81.787 54.792C81.927 54.8293 82.0437 54.848 82.137 54.848C82.3797 54.848 82.5803 54.7873 82.739 54.666C82.907 54.554 83.033 54.3907 83.117 54.176L83.607 52.958L80.737 45.762H82.081L84.195 51.684H84.223L86.253 45.762H87.513L84.363 53.966ZM96.5055 53H95.3155V45.888H92.7395V44.936C93.0755 44.936 93.4022 44.9127 93.7195 44.866C94.0368 44.81 94.3215 44.712 94.5735 44.572C94.8348 44.432 95.0542 44.2407 95.2315 43.998C95.4088 43.7553 95.5302 43.4473 95.5955 43.074H96.5055V53ZM101.149 48.114C101.149 48.4873 101.158 48.9073 101.177 49.374C101.205 49.8313 101.279 50.2653 101.401 50.676C101.531 51.0773 101.737 51.418 102.017 51.698C102.297 51.978 102.689 52.118 103.193 52.118C103.697 52.118 104.089 51.978 104.369 51.698C104.649 51.418 104.849 51.0773 104.971 50.676C105.101 50.2653 105.176 49.8313 105.195 49.374C105.223 48.9073 105.237 48.4873 105.237 48.114C105.237 47.8713 105.232 47.6053 105.223 47.316C105.223 47.0173 105.199 46.7233 105.153 46.434C105.115 46.1353 105.055 45.846 104.971 45.566C104.896 45.286 104.779 45.0433 104.621 44.838C104.471 44.6233 104.28 44.4507 104.047 44.32C103.813 44.1893 103.529 44.124 103.193 44.124C102.857 44.124 102.572 44.1893 102.339 44.32C102.105 44.4507 101.909 44.6233 101.751 44.838C101.601 45.0433 101.485 45.286 101.401 45.566C101.326 45.846 101.265 46.1353 101.219 46.434C101.181 46.7233 101.158 47.0173 101.149 47.316C101.149 47.6053 101.149 47.8713 101.149 48.114ZM99.8888 48.128C99.8888 47.764 99.8981 47.386 99.9168 46.994C99.9354 46.602 99.9821 46.2193 100.057 45.846C100.131 45.4727 100.239 45.118 100.379 44.782C100.519 44.446 100.71 44.152 100.953 43.9C101.195 43.648 101.499 43.4473 101.863 43.298C102.236 43.1487 102.679 43.074 103.193 43.074C103.706 43.074 104.145 43.1487 104.509 43.298C104.882 43.4473 105.19 43.648 105.433 43.9C105.675 44.152 105.867 44.446 106.007 44.782C106.147 45.118 106.254 45.4727 106.329 45.846C106.403 46.2193 106.45 46.602 106.469 46.994C106.487 47.386 106.497 47.764 106.497 48.128C106.497 48.492 106.487 48.87 106.469 49.262C106.45 49.654 106.403 50.0367 106.329 50.41C106.254 50.7833 106.147 51.138 106.007 51.474C105.867 51.8007 105.675 52.09 105.433 52.342C105.19 52.594 104.887 52.7947 104.523 52.944C104.159 53.084 103.715 53.154 103.193 53.154C102.679 53.154 102.236 53.084 101.863 52.944C101.499 52.7947 101.195 52.594 100.953 52.342C100.71 52.09 100.519 51.8007 100.379 51.474C100.239 51.138 100.131 50.7833 100.057 50.41C99.9821 50.0367 99.9354 49.654 99.9168 49.262C99.8981 48.87 99.8888 48.492 99.8888 48.128ZM108.928 48.114C108.928 48.4873 108.937 48.9073 108.956 49.374C108.984 49.8313 109.059 50.2653 109.18 50.676C109.311 51.0773 109.516 51.418 109.796 51.698C110.076 51.978 110.468 52.118 110.972 52.118C111.476 52.118 111.868 51.978 112.148 51.698C112.428 51.418 112.629 51.0773 112.75 50.676C112.881 50.2653 112.955 49.8313 112.974 49.374C113.002 48.9073 113.016 48.4873 113.016 48.114C113.016 47.8713 113.011 47.6053 113.002 47.316C113.002 47.0173 112.979 46.7233 112.932 46.434C112.895 46.1353 112.834 45.846 112.75 45.566C112.675 45.286 112.559 45.0433 112.4 44.838C112.251 44.6233 112.059 44.4507 111.826 44.32C111.593 44.1893 111.308 44.124 110.972 44.124C110.636 44.124 110.351 44.1893 110.118 44.32C109.885 44.4507 109.689 44.6233 109.53 44.838C109.381 45.0433 109.264 45.286 109.18 45.566C109.105 45.846 109.045 46.1353 108.998 46.434C108.961 46.7233 108.937 47.0173 108.928 47.316C108.928 47.6053 108.928 47.8713 108.928 48.114ZM107.668 48.128C107.668 47.764 107.677 47.386 107.696 46.994C107.715 46.602 107.761 46.2193 107.836 45.846C107.911 45.4727 108.018 45.118 108.158 44.782C108.298 44.446 108.489 44.152 108.732 43.9C108.975 43.648 109.278 43.4473 109.642 43.298C110.015 43.1487 110.459 43.074 110.972 43.074C111.485 43.074 111.924 43.1487 112.288 43.298C112.661 43.4473 112.969 43.648 113.212 43.9C113.455 44.152 113.646 44.446 113.786 44.782C113.926 45.118 114.033 45.4727 114.108 45.846C114.183 46.2193 114.229 46.602 114.248 46.994C114.267 47.386 114.276 47.764 114.276 48.128C114.276 48.492 114.267 48.87 114.248 49.262C114.229 49.654 114.183 50.0367 114.108 50.41C114.033 50.7833 113.926 51.138 113.786 51.474C113.646 51.8007 113.455 52.09 113.212 52.342C112.969 52.594 112.666 52.7947 112.302 52.944C111.938 53.084 111.495 53.154 110.972 53.154C110.459 53.154 110.015 53.084 109.642 52.944C109.278 52.7947 108.975 52.594 108.732 52.342C108.489 52.09 108.298 51.8007 108.158 51.474C108.018 51.138 107.911 50.7833 107.836 50.41C107.761 50.0367 107.715 49.654 107.696 49.262C107.677 48.87 107.668 48.492 107.668 48.128ZM116.707 48.114C116.707 48.4873 116.717 48.9073 116.735 49.374C116.763 49.8313 116.838 50.2653 116.959 50.676C117.09 51.0773 117.295 51.418 117.575 51.698C117.855 51.978 118.247 52.118 118.751 52.118C119.255 52.118 119.647 51.978 119.927 51.698C120.207 51.418 120.408 51.0773 120.529 50.676C120.66 50.2653 120.735 49.8313 120.753 49.374C120.781 48.9073 120.795 48.4873 120.795 48.114C120.795 47.8713 120.791 47.6053 120.781 47.316C120.781 47.0173 120.758 46.7233 120.711 46.434C120.674 46.1353 120.613 45.846 120.529 45.566C120.455 45.286 120.338 45.0433 120.179 44.838C120.03 44.6233 119.839 44.4507 119.605 44.32C119.372 44.1893 119.087 44.124 118.751 44.124C118.415 44.124 118.131 44.1893 117.897 44.32C117.664 44.4507 117.468 44.6233 117.309 44.838C117.16 45.0433 117.043 45.286 116.959 45.566C116.885 45.846 116.824 46.1353 116.777 46.434C116.74 46.7233 116.717 47.0173 116.707 47.316C116.707 47.6053 116.707 47.8713 116.707 48.114ZM115.447 48.128C115.447 47.764 115.457 47.386 115.475 46.994C115.494 46.602 115.541 46.2193 115.615 45.846C115.69 45.4727 115.797 45.118 115.937 44.782C116.077 44.446 116.269 44.152 116.511 43.9C116.754 43.648 117.057 43.4473 117.421 43.298C117.795 43.1487 118.238 43.074 118.751 43.074C119.265 43.074 119.703 43.1487 120.067 43.298C120.441 43.4473 120.749 43.648 120.991 43.9C121.234 44.152 121.425 44.446 121.565 44.782C121.705 45.118 121.813 45.4727 121.887 45.846C121.962 46.2193 122.009 46.602 122.027 46.994C122.046 47.386 122.055 47.764 122.055 48.128C122.055 48.492 122.046 48.87 122.027 49.262C122.009 49.654 121.962 50.0367 121.887 50.41C121.813 50.7833 121.705 51.138 121.565 51.474C121.425 51.8007 121.234 52.09 120.991 52.342C120.749 52.594 120.445 52.7947 120.081 52.944C119.717 53.084 119.274 53.154 118.751 53.154C118.238 53.154 117.795 53.084 117.421 52.944C117.057 52.7947 116.754 52.594 116.511 52.342C116.269 52.09 116.077 51.8007 115.937 51.474C115.797 51.138 115.69 50.7833 115.615 50.41C115.541 50.0367 115.494 49.654 115.475 49.262C115.457 48.87 115.447 48.492 115.447 48.128ZM127.623 53H126.433V45.888H123.857V44.936C124.193 44.936 124.519 44.9127 124.837 44.866C125.154 44.81 125.439 44.712 125.691 44.572C125.952 44.432 126.171 44.2407 126.349 43.998C126.526 43.7553 126.647 43.4473 126.713 43.074H127.623V53ZM131.034 46.588C131.006 46.084 131.057 45.6173 131.188 45.188C131.319 44.7587 131.519 44.39 131.79 44.082C132.07 43.7647 132.415 43.5173 132.826 43.34C133.237 43.1627 133.703 43.074 134.226 43.074C134.655 43.074 135.057 43.1393 135.43 43.27C135.813 43.3913 136.144 43.5733 136.424 43.816C136.704 44.0493 136.923 44.3433 137.082 44.698C137.25 45.0527 137.334 45.4633 137.334 45.93C137.334 46.3687 137.264 46.756 137.124 47.092C136.993 47.428 136.816 47.7313 136.592 48.002C136.368 48.2633 136.111 48.5013 135.822 48.716C135.533 48.9307 135.234 49.136 134.926 49.332C134.618 49.5187 134.31 49.7053 134.002 49.892C133.694 50.0693 133.409 50.2607 133.148 50.466C132.896 50.6713 132.677 50.8953 132.49 51.138C132.313 51.3713 132.196 51.642 132.14 51.95H137.236V53H130.754C130.801 52.412 130.903 51.9127 131.062 51.502C131.23 51.082 131.44 50.718 131.692 50.41C131.944 50.102 132.229 49.8313 132.546 49.598C132.863 49.3647 133.195 49.1453 133.54 48.94C133.96 48.6787 134.329 48.4407 134.646 48.226C134.963 48.002 135.225 47.778 135.43 47.554C135.645 47.33 135.803 47.0873 135.906 46.826C136.018 46.5647 136.074 46.2613 136.074 45.916C136.074 45.6453 136.023 45.4027 135.92 45.188C135.817 44.964 135.677 44.7727 135.5 44.614C135.332 44.4553 135.131 44.334 134.898 44.25C134.665 44.166 134.417 44.124 134.156 44.124C133.811 44.124 133.512 44.1987 133.26 44.348C133.017 44.488 132.817 44.6747 132.658 44.908C132.499 45.1413 132.383 45.4073 132.308 45.706C132.243 45.9953 132.215 46.2893 132.224 46.588H131.034ZM142.402 51.88L148.618 44.124H142.878V43.004H150.186V44.124L143.984 51.88H150.354V53H142.402V51.88ZM152.416 49.388C152.416 49.8267 152.472 50.2187 152.584 50.564C152.706 50.9 152.869 51.1847 153.074 51.418C153.28 51.642 153.518 51.8147 153.788 51.936C154.068 52.0573 154.362 52.118 154.67 52.118C154.978 52.118 155.268 52.0573 155.538 51.936C155.818 51.8147 156.061 51.642 156.266 51.418C156.472 51.1847 156.63 50.9 156.742 50.564C156.864 50.2187 156.924 49.8267 156.924 49.388C156.924 48.9493 156.864 48.562 156.742 48.226C156.63 47.8807 156.472 47.5913 156.266 47.358C156.061 47.1247 155.818 46.9473 155.538 46.826C155.268 46.7047 154.978 46.644 154.67 46.644C154.362 46.644 154.068 46.7047 153.788 46.826C153.518 46.9473 153.28 47.1247 153.074 47.358C152.869 47.5913 152.706 47.8807 152.584 48.226C152.472 48.562 152.416 48.9493 152.416 49.388ZM151.156 49.388C151.156 48.856 151.231 48.3613 151.38 47.904C151.53 47.4373 151.754 47.036 152.052 46.7C152.351 46.3547 152.72 46.084 153.158 45.888C153.597 45.692 154.101 45.594 154.67 45.594C155.249 45.594 155.753 45.692 156.182 45.888C156.621 46.084 156.99 46.3547 157.288 46.7C157.587 47.036 157.811 47.4373 157.96 47.904C158.11 48.3613 158.184 48.856 158.184 49.388C158.184 49.92 158.11 50.4147 157.96 50.872C157.811 51.3293 157.587 51.7307 157.288 52.076C156.99 52.412 156.621 52.678 156.182 52.874C155.753 53.0607 155.249 53.154 154.67 53.154C154.101 53.154 153.597 53.0607 153.158 52.874C152.72 52.678 152.351 52.412 152.052 52.076C151.754 51.7307 151.53 51.3293 151.38 50.872C151.231 50.4147 151.156 49.92 151.156 49.388ZM159.587 45.762H160.707V46.91H160.735C161.23 46.0327 162.014 45.594 163.087 45.594C163.563 45.594 163.96 45.6593 164.277 45.79C164.595 45.9207 164.851 46.1027 165.047 46.336C165.243 46.5693 165.379 46.8493 165.453 47.176C165.537 47.4933 165.579 47.848 165.579 48.24V53H164.389V48.1C164.389 47.652 164.259 47.2973 163.997 47.036C163.736 46.7747 163.377 46.644 162.919 46.644C162.555 46.644 162.238 46.7 161.967 46.812C161.706 46.924 161.487 47.0827 161.309 47.288C161.132 47.4933 160.997 47.736 160.903 48.016C160.819 48.2867 160.777 48.5853 160.777 48.912V53H159.587V45.762ZM172.393 48.688C172.374 48.408 172.309 48.142 172.197 47.89C172.094 47.638 171.949 47.4233 171.763 47.246C171.585 47.0593 171.371 46.9147 171.119 46.812C170.876 46.7 170.605 46.644 170.307 46.644C169.999 46.644 169.719 46.7 169.467 46.812C169.224 46.9147 169.014 47.0593 168.837 47.246C168.659 47.4327 168.519 47.652 168.417 47.904C168.314 48.1467 168.253 48.408 168.235 48.688H172.393ZM173.541 50.704C173.382 51.516 173.032 52.1273 172.491 52.538C171.949 52.9487 171.268 53.154 170.447 53.154C169.868 53.154 169.364 53.0607 168.935 52.874C168.515 52.6873 168.16 52.426 167.871 52.09C167.581 51.754 167.362 51.3527 167.213 50.886C167.073 50.4193 166.993 49.9107 166.975 49.36C166.975 48.8093 167.059 48.3053 167.227 47.848C167.395 47.3907 167.628 46.994 167.927 46.658C168.235 46.322 168.594 46.0607 169.005 45.874C169.425 45.6873 169.882 45.594 170.377 45.594C171.021 45.594 171.553 45.7293 171.973 46C172.402 46.2613 172.743 46.5973 172.995 47.008C173.256 47.4187 173.433 47.8667 173.527 48.352C173.629 48.8373 173.671 49.2993 173.653 49.738H168.235C168.225 50.0553 168.263 50.3587 168.347 50.648C168.431 50.928 168.566 51.18 168.753 51.404C168.939 51.6187 169.177 51.7913 169.467 51.922C169.756 52.0527 170.097 52.118 170.489 52.118C170.993 52.118 171.403 52.0013 171.721 51.768C172.047 51.5347 172.262 51.18 172.365 50.704H173.541ZM180.701 48.87H184.089L182.423 44.208H182.395L180.701 48.87ZM181.695 43.004H183.165L187.071 53H185.601L184.509 49.99H180.281L179.161 53H177.803L181.695 43.004ZM189.387 47.792H191.991C192.747 47.8013 193.298 47.6473 193.643 47.33C193.998 47.0127 194.175 46.5553 194.175 45.958C194.175 45.3607 193.998 44.908 193.643 44.6C193.298 44.2827 192.747 44.124 191.991 44.124H189.387V47.792ZM188.057 43.004H192.439C193.447 43.004 194.208 43.2653 194.721 43.788C195.244 44.3013 195.505 45.0247 195.505 45.958C195.505 46.8913 195.244 47.6193 194.721 48.142C194.208 48.6647 193.447 48.9213 192.439 48.912H189.387V53H188.057V43.004ZM205.115 49.388C205.115 50.6667 204.774 51.628 204.093 52.272C203.412 52.9067 202.441 53.224 201.181 53.224C199.893 53.224 198.885 52.9207 198.157 52.314C197.438 51.698 197.079 50.7227 197.079 49.388V43.004H198.409V49.388C198.409 50.284 198.647 50.9653 199.123 51.432C199.599 51.8893 200.285 52.118 201.181 52.118C202.03 52.118 202.674 51.8893 203.113 51.432C203.561 50.9653 203.785 50.284 203.785 49.388V43.004H205.115V49.388ZM207.308 51.446H208.862V52.86C208.862 53.392 208.741 53.8493 208.498 54.232C208.256 54.6147 207.864 54.8853 207.322 55.044V54.344C207.481 54.288 207.612 54.204 207.714 54.092C207.826 53.9893 207.915 53.8727 207.98 53.742C208.046 53.6207 208.088 53.4947 208.106 53.364C208.134 53.2333 208.144 53.112 208.134 53H207.308V51.446ZM223.011 49.388C223.011 50.6667 222.671 51.628 221.989 52.272C221.308 52.9067 220.337 53.224 219.077 53.224C217.789 53.224 216.781 52.9207 216.053 52.314C215.335 51.698 214.975 50.7227 214.975 49.388V43.004H216.305V49.388C216.305 50.284 216.543 50.9653 217.019 51.432C217.495 51.8893 218.181 52.118 219.077 52.118C219.927 52.118 220.571 51.8893 221.009 51.432C221.457 50.9653 221.681 50.284 221.681 49.388V43.004H223.011V49.388ZM224.939 45.762H226.059V46.91H226.087C226.582 46.0327 227.366 45.594 228.439 45.594C228.915 45.594 229.312 45.6593 229.629 45.79C229.946 45.9207 230.203 46.1027 230.399 46.336C230.595 46.5693 230.73 46.8493 230.805 47.176C230.889 47.4933 230.931 47.848 230.931 48.24V53H229.741V48.1C229.741 47.652 229.61 47.2973 229.349 47.036C229.088 46.7747 228.728 46.644 228.271 46.644C227.907 46.644 227.59 46.7 227.319 46.812C227.058 46.924 226.838 47.0827 226.661 47.288C226.484 47.4933 226.348 47.736 226.255 48.016C226.171 48.2867 226.129 48.5853 226.129 48.912V53H224.939V45.762ZM233.978 44.46H232.788V43.004H233.978V44.46ZM232.788 45.762H233.978V53H232.788V45.762ZM237.474 45.762H238.916V46.812H237.474V51.306C237.474 51.446 237.483 51.558 237.502 51.642C237.53 51.726 237.576 51.7913 237.642 51.838C237.707 51.8847 237.796 51.9173 237.908 51.936C238.029 51.9453 238.183 51.95 238.37 51.95H238.916V53H238.006C237.698 53 237.432 52.9813 237.208 52.944C236.993 52.8973 236.816 52.818 236.676 52.706C236.545 52.594 236.447 52.4353 236.382 52.23C236.316 52.0247 236.284 51.754 236.284 51.418V46.812H235.052V45.762H236.284V43.592H237.474V45.762ZM245.264 48.688C245.245 48.408 245.18 48.142 245.068 47.89C244.965 47.638 244.82 47.4233 244.634 47.246C244.456 47.0593 244.242 46.9147 243.99 46.812C243.747 46.7 243.476 46.644 243.178 46.644C242.87 46.644 242.59 46.7 242.338 46.812C242.095 46.9147 241.885 47.0593 241.708 47.246C241.53 47.4327 241.39 47.652 241.288 47.904C241.185 48.1467 241.124 48.408 241.106 48.688H245.264ZM246.412 50.704C246.253 51.516 245.903 52.1273 245.362 52.538C244.82 52.9487 244.139 53.154 243.318 53.154C242.739 53.154 242.235 53.0607 241.806 52.874C241.386 52.6873 241.031 52.426 240.742 52.09C240.452 51.754 240.233 51.3527 240.084 50.886C239.944 50.4193 239.864 49.9107 239.846 49.36C239.846 48.8093 239.93 48.3053 240.098 47.848C240.266 47.3907 240.499 46.994 240.798 46.658C241.106 46.322 241.465 46.0607 241.876 45.874C242.296 45.6873 242.753 45.594 243.248 45.594C243.892 45.594 244.424 45.7293 244.844 46C245.273 46.2613 245.614 46.5973 245.866 47.008C246.127 47.4187 246.304 47.8667 246.398 48.352C246.5 48.8373 246.542 49.2993 246.524 49.738H241.106C241.096 50.0553 241.134 50.3587 241.218 50.648C241.302 50.928 241.437 51.18 241.624 51.404C241.81 51.6187 242.048 51.7913 242.338 51.922C242.627 52.0527 242.968 52.118 243.36 52.118C243.864 52.118 244.274 52.0013 244.592 51.768C244.918 51.5347 245.133 51.18 245.236 50.704H246.412ZM248.625 49.444C248.625 49.78 248.667 50.1113 248.751 50.438C248.845 50.7553 248.98 51.04 249.157 51.292C249.344 51.544 249.577 51.7447 249.857 51.894C250.147 52.0433 250.483 52.118 250.865 52.118C251.267 52.118 251.607 52.0387 251.887 51.88C252.167 51.7213 252.396 51.516 252.573 51.264C252.751 51.0027 252.877 50.7087 252.951 50.382C253.035 50.0553 253.077 49.724 253.077 49.388C253.077 49.0333 253.035 48.6927 252.951 48.366C252.867 48.03 252.732 47.736 252.545 47.484C252.368 47.232 252.135 47.0313 251.845 46.882C251.556 46.7233 251.206 46.644 250.795 46.644C250.394 46.644 250.053 46.7233 249.773 46.882C249.493 47.0407 249.269 47.2507 249.101 47.512C248.933 47.7733 248.812 48.072 248.737 48.408C248.663 48.744 248.625 49.0893 248.625 49.444ZM254.225 53H253.035V52.02H253.007C252.811 52.4213 252.503 52.7107 252.083 52.888C251.663 53.0653 251.201 53.154 250.697 53.154C250.137 53.154 249.647 53.0513 249.227 52.846C248.817 52.6407 248.471 52.3653 248.191 52.02C247.921 51.6747 247.715 51.2733 247.575 50.816C247.435 50.3587 247.365 49.8733 247.365 49.36C247.365 48.8467 247.431 48.3613 247.561 47.904C247.701 47.4467 247.907 47.05 248.177 46.714C248.457 46.3687 248.803 46.098 249.213 45.902C249.633 45.6967 250.119 45.594 250.669 45.594C250.856 45.594 251.057 45.6127 251.271 45.65C251.486 45.6873 251.701 45.7527 251.915 45.846C252.13 45.93 252.331 46.0467 252.517 46.196C252.713 46.336 252.877 46.5133 253.007 46.728H253.035V43.004H254.225V53ZM2.092 67.004H3.422V71.988L8.49 67.004H10.212L5.998 71.036L10.38 77H8.7L5.088 71.946L3.422 73.5V77H2.092V67.004ZM12.4939 68.46H11.3039V67.004H12.4939V68.46ZM11.3039 69.762H12.4939V77H11.3039V69.762ZM14.3374 69.762H15.4574V70.91H15.4854C15.9801 70.0327 16.7641 69.594 17.8374 69.594C18.3134 69.594 18.7101 69.6593 19.0274 69.79C19.3447 69.9207 19.6014 70.1027 19.7974 70.336C19.9934 70.5693 20.1287 70.8493 20.2034 71.176C20.2874 71.4933 20.3294 71.848 20.3294 72.24V77H19.1394V72.1C19.1394 71.652 19.0087 71.2973 18.7474 71.036C18.4861 70.7747 18.1267 70.644 17.6694 70.644C17.3054 70.644 16.9881 70.7 16.7174 70.812C16.4561 70.924 16.2367 71.0827 16.0594 71.288C15.8821 71.4933 15.7467 71.736 15.6534 72.016C15.5694 72.2867 15.5274 72.5853 15.5274 72.912V77H14.3374V69.762ZM28.3607 76.384C28.3607 77.5693 28.09 78.456 27.5487 79.044C27.0074 79.632 26.158 79.926 25.0007 79.926C24.6647 79.926 24.3194 79.8887 23.9647 79.814C23.6194 79.7393 23.302 79.618 23.0127 79.45C22.7327 79.282 22.4994 79.0627 22.3127 78.792C22.126 78.5213 22.0234 78.19 22.0047 77.798H23.1947C23.204 78.0127 23.2694 78.1947 23.3907 78.344C23.5214 78.4933 23.6754 78.6147 23.8527 78.708C24.0394 78.8013 24.24 78.8667 24.4547 78.904C24.6694 78.9507 24.8747 78.974 25.0707 78.974C25.4627 78.974 25.794 78.904 26.0647 78.764C26.3354 78.6333 26.5594 78.4467 26.7367 78.204C26.914 77.9707 27.04 77.686 27.1147 77.35C27.1987 77.014 27.2407 76.6453 27.2407 76.244V75.768H27.2127C27.0074 76.216 26.6947 76.5473 26.2747 76.762C25.864 76.9673 25.4254 77.07 24.9587 77.07C24.4174 77.07 23.946 76.972 23.5447 76.776C23.1434 76.58 22.8074 76.3187 22.5367 75.992C22.266 75.656 22.0607 75.2687 21.9207 74.83C21.79 74.382 21.7247 73.9107 21.7247 73.416C21.7247 72.9867 21.7807 72.548 21.8927 72.1C22.0047 71.6427 22.1914 71.232 22.4527 70.868C22.714 70.4947 23.0594 70.1913 23.4887 69.958C23.918 69.7153 24.4454 69.594 25.0707 69.594C25.528 69.594 25.948 69.6967 26.3307 69.902C26.7134 70.098 27.012 70.3967 27.2267 70.798H27.2407V69.762H28.3607V76.384ZM25.0287 76.034C25.4207 76.034 25.752 75.9547 26.0227 75.796C26.3027 75.628 26.5267 75.4133 26.6947 75.152C26.8627 74.8813 26.984 74.578 27.0587 74.242C27.1427 73.906 27.1847 73.57 27.1847 73.234C27.1847 72.9167 27.1474 72.604 27.0727 72.296C26.998 71.988 26.8767 71.7127 26.7087 71.47C26.55 71.218 26.34 71.0173 26.0787 70.868C25.8174 70.7187 25.5 70.644 25.1267 70.644C24.744 70.644 24.4174 70.7187 24.1467 70.868C23.876 71.008 23.652 71.1993 23.4747 71.442C23.3067 71.6847 23.1807 71.9647 23.0967 72.282C23.022 72.5993 22.9847 72.9307 22.9847 73.276C22.9847 73.6027 23.0174 73.9293 23.0827 74.256C23.148 74.5827 23.26 74.8813 23.4187 75.152C23.5774 75.4133 23.7874 75.628 24.0487 75.796C24.31 75.9547 24.6367 76.034 25.0287 76.034ZM31.0238 73.444C31.0238 73.78 31.0658 74.1113 31.1498 74.438C31.2431 74.7553 31.3784 75.04 31.5558 75.292C31.7424 75.544 31.9758 75.7447 32.2558 75.894C32.5451 76.0433 32.8811 76.118 33.2638 76.118C33.6651 76.118 34.0058 76.0387 34.2858 75.88C34.5658 75.7213 34.7944 75.516 34.9718 75.264C35.1491 75.0027 35.2751 74.7087 35.3498 74.382C35.4338 74.0553 35.4758 73.724 35.4758 73.388C35.4758 73.0333 35.4338 72.6927 35.3498 72.366C35.2658 72.03 35.1304 71.736 34.9438 71.484C34.7664 71.232 34.5331 71.0313 34.2438 70.882C33.9544 70.7233 33.6044 70.644 33.1938 70.644C32.7924 70.644 32.4518 70.7233 32.1718 70.882C31.8918 71.0407 31.6678 71.2507 31.4998 71.512C31.3318 71.7733 31.2104 72.072 31.1358 72.408C31.0611 72.744 31.0238 73.0893 31.0238 73.444ZM36.6238 77H35.4338V76.02H35.4058C35.2098 76.4213 34.9018 76.7107 34.4818 76.888C34.0618 77.0653 33.5998 77.154 33.0958 77.154C32.5358 77.154 32.0458 77.0513 31.6258 76.846C31.2151 76.6407 30.8698 76.3653 30.5898 76.02C30.3191 75.6747 30.1138 75.2733 29.9738 74.816C29.8338 74.3587 29.7638 73.8733 29.7638 73.36C29.7638 72.8467 29.8291 72.3613 29.9598 71.904C30.0998 71.4467 30.3051 71.05 30.5758 70.714C30.8558 70.3687 31.2011 70.098 31.6118 69.902C32.0318 69.6967 32.5171 69.594 33.0678 69.594C33.2544 69.594 33.4551 69.6127 33.6698 69.65C33.8844 69.6873 34.0991 69.7527 34.3138 69.846C34.5284 69.93 34.7291 70.0467 34.9158 70.196C35.1118 70.336 35.2751 70.5133 35.4058 70.728H35.4338V67.004H36.6238V77ZM39.3226 73.388C39.3226 73.8267 39.3786 74.2187 39.4906 74.564C39.6119 74.9 39.7753 75.1847 39.9806 75.418C40.1859 75.642 40.4239 75.8147 40.6946 75.936C40.9746 76.0573 41.2686 76.118 41.5766 76.118C41.8846 76.118 42.1739 76.0573 42.4446 75.936C42.7246 75.8147 42.9673 75.642 43.1726 75.418C43.3779 75.1847 43.5366 74.9 43.6486 74.564C43.7699 74.2187 43.8306 73.8267 43.8306 73.388C43.8306 72.9493 43.7699 72.562 43.6486 72.226C43.5366 71.8807 43.3779 71.5913 43.1726 71.358C42.9673 71.1247 42.7246 70.9473 42.4446 70.826C42.1739 70.7047 41.8846 70.644 41.5766 70.644C41.2686 70.644 40.9746 70.7047 40.6946 70.826C40.4239 70.9473 40.1859 71.1247 39.9806 71.358C39.7753 71.5913 39.6119 71.8807 39.4906 72.226C39.3786 72.562 39.3226 72.9493 39.3226 73.388ZM38.0626 73.388C38.0626 72.856 38.1373 72.3613 38.2866 71.904C38.4359 71.4373 38.6599 71.036 38.9586 70.7C39.2573 70.3547 39.6259 70.084 40.0646 69.888C40.5033 69.692 41.0073 69.594 41.5766 69.594C42.1553 69.594 42.6593 69.692 43.0886 69.888C43.5273 70.084 43.8959 70.3547 44.1946 70.7C44.4933 71.036 44.7173 71.4373 44.8666 71.904C45.0159 72.3613 45.0906 72.856 45.0906 73.388C45.0906 73.92 45.0159 74.4147 44.8666 74.872C44.7173 75.3293 44.4933 75.7307 44.1946 76.076C43.8959 76.412 43.5273 76.678 43.0886 76.874C42.6593 77.0607 42.1553 77.154 41.5766 77.154C41.0073 77.154 40.5033 77.0607 40.0646 76.874C39.6259 76.678 39.2573 76.412 38.9586 76.076C38.6599 75.7307 38.4359 75.3293 38.2866 74.872C38.1373 74.4147 38.0626 73.92 38.0626 73.388ZM46.4937 69.762H47.6137V70.826H47.6417C48.183 70.0047 48.9623 69.594 49.9797 69.594C50.4277 69.594 50.8337 69.6873 51.1977 69.874C51.5617 70.0607 51.8183 70.378 51.9677 70.826C52.2103 70.434 52.5277 70.1307 52.9197 69.916C53.321 69.7013 53.7597 69.594 54.2357 69.594C54.5997 69.594 54.9263 69.636 55.2157 69.72C55.5143 69.7947 55.7663 69.916 55.9717 70.084C56.1863 70.252 56.3497 70.4713 56.4617 70.742C56.583 71.0033 56.6437 71.3207 56.6437 71.694V77H55.4537V72.254C55.4537 72.03 55.435 71.82 55.3977 71.624C55.3603 71.428 55.2903 71.26 55.1877 71.12C55.085 70.9707 54.9403 70.854 54.7537 70.77C54.5763 70.686 54.343 70.644 54.0537 70.644C53.4657 70.644 53.0037 70.812 52.6677 71.148C52.3317 71.484 52.1637 71.932 52.1637 72.492V77H50.9737V72.254C50.9737 72.0207 50.9503 71.806 50.9037 71.61C50.8663 71.414 50.7963 71.246 50.6937 71.106C50.591 70.9567 50.451 70.8447 50.2737 70.77C50.1057 70.686 49.8863 70.644 49.6157 70.644C49.2703 70.644 48.9717 70.714 48.7197 70.854C48.477 70.994 48.2763 71.162 48.1177 71.358C47.9683 71.554 47.8563 71.7593 47.7817 71.974C47.7163 72.1793 47.6837 72.352 47.6837 72.492V77H46.4937V69.762Z" fill="#666666"/>
<path d="M8.812 112.182C8.73733 111.893 8.63467 111.627 8.504 111.384C8.37333 111.141 8.20533 110.931 8 110.754C7.79467 110.577 7.552 110.441 7.272 110.348C7.00133 110.245 6.684 110.194 6.32 110.194C5.788 110.194 5.326 110.301 4.934 110.516C4.55133 110.731 4.23867 111.02 3.996 111.384C3.75333 111.739 3.57133 112.145 3.45 112.602C3.338 113.059 3.282 113.526 3.282 114.002C3.282 114.478 3.338 114.945 3.45 115.402C3.57133 115.859 3.75333 116.27 3.996 116.634C4.23867 116.989 4.55133 117.273 4.934 117.488C5.326 117.703 5.788 117.81 6.32 117.81C6.712 117.81 7.05733 117.745 7.356 117.614C7.65467 117.474 7.91133 117.287 8.126 117.054C8.34067 116.811 8.50867 116.531 8.63 116.214C8.75133 115.897 8.83067 115.556 8.868 115.192H10.576C10.5387 115.789 10.408 116.335 10.184 116.83C9.96933 117.325 9.67533 117.754 9.302 118.118C8.92867 118.473 8.49 118.748 7.986 118.944C7.482 119.14 6.92667 119.238 6.32 119.238C5.57333 119.238 4.90133 119.103 4.304 118.832C3.716 118.552 3.21667 118.174 2.806 117.698C2.39533 117.222 2.078 116.667 1.854 116.032C1.63933 115.397 1.532 114.721 1.532 114.002C1.532 113.293 1.63933 112.621 1.854 111.986C2.078 111.351 2.39533 110.796 2.806 110.32C3.21667 109.844 3.716 109.466 4.304 109.186C4.90133 108.906 5.57333 108.766 6.32 108.766C6.88 108.766 7.40733 108.845 7.902 109.004C8.39667 109.153 8.83067 109.377 9.204 109.676C9.58667 109.965 9.89467 110.32 10.128 110.74C10.3613 111.16 10.506 111.641 10.562 112.182H8.812ZM16.4235 110.194C15.8915 110.194 15.4295 110.301 15.0375 110.516C14.6548 110.731 14.3422 111.02 14.0995 111.384C13.8568 111.739 13.6748 112.145 13.5535 112.602C13.4415 113.059 13.3855 113.526 13.3855 114.002C13.3855 114.478 13.4415 114.945 13.5535 115.402C13.6748 115.859 13.8568 116.27 14.0995 116.634C14.3422 116.989 14.6548 117.273 15.0375 117.488C15.4295 117.703 15.8915 117.81 16.4235 117.81C16.9555 117.81 17.4128 117.703 17.7955 117.488C18.1875 117.273 18.5048 116.989 18.7475 116.634C18.9902 116.27 19.1675 115.859 19.2795 115.402C19.4008 114.945 19.4615 114.478 19.4615 114.002C19.4615 113.526 19.4008 113.059 19.2795 112.602C19.1675 112.145 18.9902 111.739 18.7475 111.384C18.5048 111.02 18.1875 110.731 17.7955 110.516C17.4128 110.301 16.9555 110.194 16.4235 110.194ZM16.4235 108.766C17.1702 108.766 17.8375 108.906 18.4255 109.186C19.0228 109.466 19.5268 109.844 19.9375 110.32C20.3482 110.796 20.6608 111.351 20.8755 111.986C21.0995 112.621 21.2115 113.293 21.2115 114.002C21.2115 114.721 21.0995 115.397 20.8755 116.032C20.6608 116.667 20.3482 117.222 19.9375 117.698C19.5268 118.174 19.0228 118.552 18.4255 118.832C17.8375 119.103 17.1702 119.238 16.4235 119.238C15.6768 119.238 15.0048 119.103 14.4075 118.832C13.8195 118.552 13.3202 118.174 12.9095 117.698C12.4988 117.222 12.1815 116.667 11.9575 116.032C11.7428 115.397 11.6355 114.721 11.6355 114.002C11.6355 113.293 11.7428 112.621 11.9575 111.986C12.1815 111.351 12.4988 110.796 12.9095 110.32C13.3202 109.844 13.8195 109.466 14.4075 109.186C15.0048 108.906 15.6768 108.766 16.4235 108.766ZM22.7342 109.004H24.5822L29.1462 116.368H29.1742V109.004H30.8402V119H28.9922L24.4422 111.65H24.4002V119H22.7342V109.004ZM31.9558 109.004H40.0478V110.516H36.8698V119H35.1198V110.516H31.9558V109.004ZM42.5954 109.004H44.4574L48.3074 119H46.4314L45.4934 116.354H41.5034L40.5654 119H38.7594L42.5954 109.004ZM41.9794 115.024H45.0314L43.5334 110.726H43.4914L41.9794 115.024ZM56.0073 112.182C55.9326 111.893 55.83 111.627 55.6993 111.384C55.5686 111.141 55.4006 110.931 55.1953 110.754C54.99 110.577 54.7473 110.441 54.4673 110.348C54.1966 110.245 53.8793 110.194 53.5153 110.194C52.9833 110.194 52.5213 110.301 52.1293 110.516C51.7466 110.731 51.434 111.02 51.1913 111.384C50.9486 111.739 50.7666 112.145 50.6453 112.602C50.5333 113.059 50.4773 113.526 50.4773 114.002C50.4773 114.478 50.5333 114.945 50.6453 115.402C50.7666 115.859 50.9486 116.27 51.1913 116.634C51.434 116.989 51.7466 117.273 52.1293 117.488C52.5213 117.703 52.9833 117.81 53.5153 117.81C53.9073 117.81 54.2526 117.745 54.5513 117.614C54.85 117.474 55.1066 117.287 55.3213 117.054C55.536 116.811 55.704 116.531 55.8253 116.214C55.9466 115.897 56.026 115.556 56.0633 115.192H57.7713C57.734 115.789 57.6033 116.335 57.3793 116.83C57.1646 117.325 56.8706 117.754 56.4973 118.118C56.124 118.473 55.6853 118.748 55.1813 118.944C54.6773 119.14 54.122 119.238 53.5153 119.238C52.7686 119.238 52.0966 119.103 51.4993 118.832C50.9113 118.552 50.412 118.174 50.0013 117.698C49.5906 117.222 49.2733 116.667 49.0493 116.032C48.8346 115.397 48.7273 114.721 48.7273 114.002C48.7273 113.293 48.8346 112.621 49.0493 111.986C49.2733 111.351 49.5906 110.796 50.0013 110.32C50.412 109.844 50.9113 109.466 51.4993 109.186C52.0966 108.906 52.7686 108.766 53.5153 108.766C54.0753 108.766 54.6026 108.845 55.0973 109.004C55.592 109.153 56.026 109.377 56.3993 109.676C56.782 109.965 57.09 110.32 57.3233 110.74C57.5566 111.16 57.7013 111.641 57.7573 112.182H56.0073ZM58.4108 109.004H66.5028V110.516H63.3248V119H61.5748V110.516H58.4108V109.004Z" fill="#333333"/>
<path d="M5.676 152.982H8.728V153.934H5.676V157H4.724V153.934H1.672V152.982H4.724V149.916H5.676V152.982ZM10.0105 150.588C9.98253 150.084 10.0339 149.617 10.1645 149.188C10.2952 148.759 10.4959 148.39 10.7665 148.082C11.0465 147.765 11.3919 147.517 11.8025 147.34C12.2132 147.163 12.6799 147.074 13.2025 147.074C13.6319 147.074 14.0332 147.139 14.4065 147.27C14.7892 147.391 15.1205 147.573 15.4005 147.816C15.6805 148.049 15.8999 148.343 16.0585 148.698C16.2265 149.053 16.3105 149.463 16.3105 149.93C16.3105 150.369 16.2405 150.756 16.1005 151.092C15.9699 151.428 15.7925 151.731 15.5685 152.002C15.3445 152.263 15.0879 152.501 14.7985 152.716C14.5092 152.931 14.2105 153.136 13.9025 153.332C13.5945 153.519 13.2865 153.705 12.9785 153.892C12.6705 154.069 12.3859 154.261 12.1245 154.466C11.8725 154.671 11.6532 154.895 11.4665 155.138C11.2892 155.371 11.1725 155.642 11.1165 155.95H16.2125V157H9.73053C9.7772 156.412 9.87986 155.913 10.0385 155.502C10.2065 155.082 10.4165 154.718 10.6685 154.41C10.9205 154.102 11.2052 153.831 11.5225 153.598C11.8399 153.365 12.1712 153.145 12.5165 152.94C12.9365 152.679 13.3052 152.441 13.6225 152.226C13.9399 152.002 14.2012 151.778 14.4065 151.554C14.6212 151.33 14.7799 151.087 14.8825 150.826C14.9945 150.565 15.0505 150.261 15.0505 149.916C15.0505 149.645 14.9992 149.403 14.8965 149.188C14.7939 148.964 14.6539 148.773 14.4765 148.614C14.3085 148.455 14.1079 148.334 13.8745 148.25C13.6412 148.166 13.3939 148.124 13.1325 148.124C12.7872 148.124 12.4885 148.199 12.2365 148.348C11.9939 148.488 11.7932 148.675 11.6345 148.908C11.4759 149.141 11.3592 149.407 11.2845 149.706C11.2192 149.995 11.1912 150.289 11.2005 150.588H10.0105ZM20.2258 151.33C20.2725 151.339 20.3145 151.344 20.3518 151.344C20.3985 151.344 20.4452 151.344 20.4918 151.344H20.7438C20.9958 151.344 21.2338 151.311 21.4578 151.246C21.6912 151.171 21.8918 151.069 22.0598 150.938C22.2372 150.798 22.3772 150.625 22.4798 150.42C22.5825 150.215 22.6338 149.981 22.6338 149.72C22.6338 149.188 22.4658 148.791 22.1298 148.53C21.7938 148.259 21.3738 148.124 20.8698 148.124C20.5525 148.124 20.2725 148.185 20.0298 148.306C19.7965 148.418 19.6005 148.572 19.4418 148.768C19.2925 148.964 19.1805 149.193 19.1058 149.454C19.0312 149.715 18.9938 149.991 18.9938 150.28H17.8038C17.8225 149.804 17.8972 149.37 18.0278 148.978C18.1678 148.586 18.3638 148.25 18.6158 147.97C18.8678 147.69 19.1805 147.471 19.5538 147.312C19.9365 147.153 20.3752 147.074 20.8698 147.074C21.2992 147.074 21.6958 147.13 22.0598 147.242C22.4332 147.345 22.7552 147.503 23.0258 147.718C23.2965 147.933 23.5065 148.208 23.6558 148.544C23.8145 148.88 23.8938 149.277 23.8938 149.734C23.8938 150.182 23.7632 150.579 23.5018 150.924C23.2405 151.269 22.9138 151.531 22.5218 151.708V151.736C23.1285 151.867 23.5765 152.151 23.8658 152.59C24.1645 153.029 24.3138 153.547 24.3138 154.144C24.3138 154.639 24.2205 155.077 24.0338 155.46C23.8565 155.833 23.6138 156.146 23.3058 156.398C22.9978 156.65 22.6338 156.841 22.2138 156.972C21.8032 157.093 21.3645 157.154 20.8978 157.154C20.3938 157.154 19.9365 157.084 19.5258 156.944C19.1152 156.804 18.7652 156.599 18.4758 156.328C18.1865 156.048 17.9625 155.707 17.8038 155.306C17.6545 154.905 17.5845 154.447 17.5938 153.934H18.7838C18.8025 154.578 18.9892 155.105 19.3438 155.516C19.6985 155.917 20.2165 156.118 20.8978 156.118C21.1872 156.118 21.4625 156.076 21.7238 155.992C21.9852 155.899 22.2138 155.773 22.4098 155.614C22.6058 155.446 22.7598 155.245 22.8718 155.012C22.9932 154.769 23.0538 154.499 23.0538 154.2C23.0538 153.892 22.9978 153.621 22.8858 153.388C22.7738 153.145 22.6245 152.945 22.4378 152.786C22.2512 152.618 22.0272 152.497 21.7658 152.422C21.5138 152.338 21.2385 152.296 20.9398 152.296C20.6878 152.296 20.4498 152.31 20.2258 152.338V151.33ZM29.6991 153.626V148.768H29.6711L26.3671 153.626H29.6991ZM30.8191 153.626H32.1631V154.676H30.8191V157H29.6991V154.676H25.3451V153.528L29.8671 147.074H30.8191V153.626ZM34.6084 154.606C34.6551 155.091 34.8511 155.465 35.1964 155.726C35.5418 155.987 35.9524 156.118 36.4284 156.118C37.1564 156.118 37.7024 155.805 38.0664 155.18C38.4304 154.545 38.6311 153.579 38.6684 152.282L38.6404 152.254C38.4164 152.674 38.0991 153.01 37.6884 153.262C37.2778 153.505 36.8298 153.626 36.3444 153.626C35.8404 153.626 35.3924 153.547 35.0004 153.388C34.6084 153.22 34.2771 152.991 34.0064 152.702C33.7451 152.413 33.5444 152.063 33.4044 151.652C33.2738 151.241 33.2084 150.793 33.2084 150.308C33.2084 149.832 33.2878 149.398 33.4464 149.006C33.6051 148.605 33.8291 148.264 34.1184 147.984C34.4078 147.695 34.7531 147.471 35.1544 147.312C35.5558 147.153 35.9944 147.074 36.4704 147.074C36.9371 147.074 37.3758 147.149 37.7864 147.298C38.1971 147.438 38.5564 147.685 38.8644 148.04C39.1724 148.395 39.4151 148.88 39.5924 149.496C39.7791 150.103 39.8724 150.877 39.8724 151.82C39.8724 153.537 39.5971 154.858 39.0464 155.782C38.5051 156.697 37.6324 157.154 36.4284 157.154C35.5978 157.154 34.9071 156.944 34.3564 156.524C33.8058 156.104 33.4931 155.465 33.4184 154.606H34.6084ZM38.4584 150.392C38.4584 150.084 38.4118 149.795 38.3184 149.524C38.2344 149.253 38.1038 149.015 37.9264 148.81C37.7584 148.595 37.5484 148.427 37.2964 148.306C37.0444 148.185 36.7504 148.124 36.4144 148.124C36.0598 148.124 35.7564 148.189 35.5044 148.32C35.2618 148.451 35.0611 148.628 34.9024 148.852C34.7531 149.067 34.6411 149.314 34.5664 149.594C34.5011 149.874 34.4684 150.168 34.4684 150.476C34.4684 150.747 34.5151 151.008 34.6084 151.26C34.7111 151.512 34.8464 151.736 35.0144 151.932C35.1918 152.128 35.3971 152.287 35.6304 152.408C35.8731 152.52 36.1391 152.576 36.4284 152.576C36.7364 152.576 37.0164 152.52 37.2684 152.408C37.5204 152.287 37.7351 152.128 37.9124 151.932C38.0898 151.727 38.2251 151.493 38.3184 151.232C38.4118 150.961 38.4584 150.681 38.4584 150.392ZM42.3597 152.114C42.3597 152.487 42.3691 152.907 42.3877 153.374C42.4157 153.831 42.4904 154.265 42.6117 154.676C42.7424 155.077 42.9477 155.418 43.2277 155.698C43.5077 155.978 43.8997 156.118 44.4037 156.118C44.9077 156.118 45.2997 155.978 45.5797 155.698C45.8597 155.418 46.0604 155.077 46.1817 154.676C46.3124 154.265 46.3871 153.831 46.4057 153.374C46.4337 152.907 46.4477 152.487 46.4477 152.114C46.4477 151.871 46.4431 151.605 46.4337 151.316C46.4337 151.017 46.4104 150.723 46.3637 150.434C46.3264 150.135 46.2657 149.846 46.1817 149.566C46.1071 149.286 45.9904 149.043 45.8317 148.838C45.6824 148.623 45.4911 148.451 45.2577 148.32C45.0244 148.189 44.7397 148.124 44.4037 148.124C44.0677 148.124 43.7831 148.189 43.5497 148.32C43.3164 148.451 43.1204 148.623 42.9617 148.838C42.8124 149.043 42.6957 149.286 42.6117 149.566C42.5371 149.846 42.4764 150.135 42.4297 150.434C42.3924 150.723 42.3691 151.017 42.3597 151.316C42.3597 151.605 42.3597 151.871 42.3597 152.114ZM41.0997 152.128C41.0997 151.764 41.1091 151.386 41.1277 150.994C41.1464 150.602 41.1931 150.219 41.2677 149.846C41.3424 149.473 41.4497 149.118 41.5897 148.782C41.7297 148.446 41.9211 148.152 42.1637 147.9C42.4064 147.648 42.7097 147.447 43.0737 147.298C43.4471 147.149 43.8904 147.074 44.4037 147.074C44.9171 147.074 45.3557 147.149 45.7197 147.298C46.0931 147.447 46.4011 147.648 46.6437 147.9C46.8864 148.152 47.0777 148.446 47.2177 148.782C47.3577 149.118 47.4651 149.473 47.5397 149.846C47.6144 150.219 47.6611 150.602 47.6797 150.994C47.6984 151.386 47.7077 151.764 47.7077 152.128C47.7077 152.492 47.6984 152.87 47.6797 153.262C47.6611 153.654 47.6144 154.037 47.5397 154.41C47.4651 154.783 47.3577 155.138 47.2177 155.474C47.0777 155.801 46.8864 156.09 46.6437 156.342C46.4011 156.594 46.0977 156.795 45.7337 156.944C45.3697 157.084 44.9264 157.154 44.4037 157.154C43.8904 157.154 43.4471 157.084 43.0737 156.944C42.7097 156.795 42.4064 156.594 42.1637 156.342C41.9211 156.09 41.7297 155.801 41.5897 155.474C41.4497 155.138 41.3424 154.783 41.2677 154.41C41.1931 154.037 41.1464 153.654 41.1277 153.262C41.1091 152.87 41.0997 152.492 41.0997 152.128ZM52.8875 152.548H56.9335V153.668H52.8875V152.548ZM63.6954 149.65C63.6954 149.921 63.7421 150.159 63.8354 150.364C63.9287 150.56 64.0547 150.723 64.2134 150.854C64.3721 150.985 64.5587 151.083 64.7734 151.148C64.9881 151.213 65.2167 151.246 65.4594 151.246C65.9354 151.246 66.3274 151.106 66.6354 150.826C66.9434 150.546 67.0974 150.154 67.0974 149.65C67.0974 149.146 66.9387 148.768 66.6214 148.516C66.3134 148.255 65.9167 148.124 65.4314 148.124C65.1981 148.124 64.9741 148.157 64.7594 148.222C64.5447 148.287 64.3581 148.385 64.1994 148.516C64.0501 148.647 63.9287 148.805 63.8354 148.992C63.7421 149.179 63.6954 149.398 63.6954 149.65ZM62.4354 149.608C62.4354 149.197 62.5147 148.838 62.6734 148.53C62.8321 148.213 63.0467 147.947 63.3174 147.732C63.5881 147.517 63.8961 147.354 64.2414 147.242C64.5961 147.13 64.9647 147.074 65.3474 147.074C65.8887 147.074 66.3507 147.149 66.7334 147.298C67.1161 147.438 67.4241 147.629 67.6574 147.872C67.9001 148.105 68.0774 148.376 68.1894 148.684C68.3014 148.983 68.3574 149.291 68.3574 149.608C68.3574 150.056 68.2314 150.467 67.9794 150.84C67.7367 151.204 67.4054 151.479 66.9854 151.666C67.5827 151.853 68.0261 152.161 68.3154 152.59C68.6047 153.01 68.7494 153.528 68.7494 154.144C68.7494 154.629 68.6607 155.059 68.4834 155.432C68.3154 155.805 68.0821 156.123 67.7834 156.384C67.4941 156.636 67.1487 156.827 66.7474 156.958C66.3461 157.089 65.9167 157.154 65.4594 157.154C64.9834 157.154 64.5401 157.093 64.1294 156.972C63.7187 156.851 63.3594 156.664 63.0514 156.412C62.7527 156.16 62.5147 155.847 62.3374 155.474C62.1694 155.091 62.0854 154.648 62.0854 154.144C62.0854 153.556 62.2347 153.047 62.5334 152.618C62.8321 152.179 63.2614 151.862 63.8214 151.666C63.4014 151.498 63.0654 151.227 62.8134 150.854C62.5614 150.471 62.4354 150.056 62.4354 149.608ZM63.3454 154.2C63.3454 154.797 63.5414 155.269 63.9334 155.614C64.3347 155.95 64.8434 156.118 65.4594 156.118C65.7581 156.118 66.0287 156.071 66.2714 155.978C66.5234 155.875 66.7381 155.74 66.9154 155.572C67.1021 155.395 67.2421 155.189 67.3354 154.956C67.4381 154.723 67.4894 154.466 67.4894 154.186C67.4894 153.915 67.4334 153.668 67.3214 153.444C67.2187 153.211 67.0741 153.01 66.8874 152.842C66.7007 152.674 66.4814 152.543 66.2294 152.45C65.9867 152.347 65.7254 152.296 65.4454 152.296C65.1561 152.296 64.8807 152.343 64.6194 152.436C64.3674 152.52 64.1434 152.646 63.9474 152.814C63.7607 152.982 63.6114 153.183 63.4994 153.416C63.3967 153.649 63.3454 153.911 63.3454 154.2ZM71.4747 149.65C71.4747 149.921 71.5214 150.159 71.6147 150.364C71.708 150.56 71.834 150.723 71.9927 150.854C72.1514 150.985 72.338 151.083 72.5527 151.148C72.7674 151.213 72.996 151.246 73.2387 151.246C73.7147 151.246 74.1067 151.106 74.4147 150.826C74.7227 150.546 74.8767 150.154 74.8767 149.65C74.8767 149.146 74.718 148.768 74.4007 148.516C74.0927 148.255 73.696 148.124 73.2107 148.124C72.9774 148.124 72.7534 148.157 72.5387 148.222C72.324 148.287 72.1374 148.385 71.9787 148.516C71.8294 148.647 71.708 148.805 71.6147 148.992C71.5214 149.179 71.4747 149.398 71.4747 149.65ZM70.2147 149.608C70.2147 149.197 70.294 148.838 70.4527 148.53C70.6114 148.213 70.826 147.947 71.0967 147.732C71.3674 147.517 71.6754 147.354 72.0207 147.242C72.3754 147.13 72.744 147.074 73.1267 147.074C73.668 147.074 74.13 147.149 74.5127 147.298C74.8954 147.438 75.2034 147.629 75.4367 147.872C75.6794 148.105 75.8567 148.376 75.9687 148.684C76.0807 148.983 76.1367 149.291 76.1367 149.608C76.1367 150.056 76.0107 150.467 75.7587 150.84C75.516 151.204 75.1847 151.479 74.7647 151.666C75.362 151.853 75.8054 152.161 76.0947 152.59C76.384 153.01 76.5287 153.528 76.5287 154.144C76.5287 154.629 76.44 155.059 76.2627 155.432C76.0947 155.805 75.8614 156.123 75.5627 156.384C75.2734 156.636 74.928 156.827 74.5267 156.958C74.1254 157.089 73.696 157.154 73.2387 157.154C72.7627 157.154 72.3194 157.093 71.9087 156.972C71.498 156.851 71.1387 156.664 70.8307 156.412C70.532 156.16 70.294 155.847 70.1167 155.474C69.9487 155.091 69.8647 154.648 69.8647 154.144C69.8647 153.556 70.014 153.047 70.3127 152.618C70.6114 152.179 71.0407 151.862 71.6007 151.666C71.1807 151.498 70.8447 151.227 70.5927 150.854C70.3407 150.471 70.2147 150.056 70.2147 149.608ZM71.1247 154.2C71.1247 154.797 71.3207 155.269 71.7127 155.614C72.114 155.95 72.6227 156.118 73.2387 156.118C73.5374 156.118 73.808 156.071 74.0507 155.978C74.3027 155.875 74.5174 155.74 74.6947 155.572C74.8814 155.395 75.0214 155.189 75.1147 154.956C75.2174 154.723 75.2687 154.466 75.2687 154.186C75.2687 153.915 75.2127 153.668 75.1007 153.444C74.998 153.211 74.8534 153.01 74.6667 152.842C74.48 152.674 74.2607 152.543 74.0087 152.45C73.766 152.347 73.5047 152.296 73.2247 152.296C72.9354 152.296 72.66 152.343 72.3987 152.436C72.1467 152.52 71.9227 152.646 71.7267 152.814C71.54 152.982 71.3907 153.183 71.2787 153.416C71.176 153.649 71.1247 153.911 71.1247 154.2ZM79.254 149.65C79.254 149.921 79.3007 150.159 79.394 150.364C79.4873 150.56 79.6133 150.723 79.772 150.854C79.9307 150.985 80.1173 151.083 80.332 151.148C80.5467 151.213 80.7753 151.246 81.018 151.246C81.494 151.246 81.886 151.106 82.194 150.826C82.502 150.546 82.656 150.154 82.656 149.65C82.656 149.146 82.4973 148.768 82.18 148.516C81.872 148.255 81.4753 148.124 80.99 148.124C80.7567 148.124 80.5327 148.157 80.318 148.222C80.1033 148.287 79.9167 148.385 79.758 148.516C79.6087 148.647 79.4873 148.805 79.394 148.992C79.3007 149.179 79.254 149.398 79.254 149.65ZM77.994 149.608C77.994 149.197 78.0733 148.838 78.232 148.53C78.3907 148.213 78.6053 147.947 78.876 147.732C79.1467 147.517 79.4547 147.354 79.8 147.242C80.1547 147.13 80.5233 147.074 80.906 147.074C81.4473 147.074 81.9093 147.149 82.292 147.298C82.6747 147.438 82.9827 147.629 83.216 147.872C83.4587 148.105 83.636 148.376 83.748 148.684C83.86 148.983 83.916 149.291 83.916 149.608C83.916 150.056 83.79 150.467 83.538 150.84C83.2953 151.204 82.964 151.479 82.544 151.666C83.1413 151.853 83.5847 152.161 83.874 152.59C84.1633 153.01 84.308 153.528 84.308 154.144C84.308 154.629 84.2193 155.059 84.042 155.432C83.874 155.805 83.6407 156.123 83.342 156.384C83.0527 156.636 82.7073 156.827 82.306 156.958C81.9047 157.089 81.4753 157.154 81.018 157.154C80.542 157.154 80.0987 157.093 79.688 156.972C79.2773 156.851 78.918 156.664 78.61 156.412C78.3113 156.16 78.0733 155.847 77.896 155.474C77.728 155.091 77.644 154.648 77.644 154.144C77.644 153.556 77.7933 153.047 78.092 152.618C78.3907 152.179 78.82 151.862 79.38 151.666C78.96 151.498 78.624 151.227 78.372 150.854C78.12 150.471 77.994 150.056 77.994 149.608ZM78.904 154.2C78.904 154.797 79.1 155.269 79.492 155.614C79.8933 155.95 80.402 156.118 81.018 156.118C81.3167 156.118 81.5873 156.071 81.83 155.978C82.082 155.875 82.2967 155.74 82.474 155.572C82.6607 155.395 82.8007 155.189 82.894 154.956C82.9967 154.723 83.048 154.466 83.048 154.186C83.048 153.915 82.992 153.668 82.88 153.444C82.7773 153.211 82.6327 153.01 82.446 152.842C82.2593 152.674 82.04 152.543 81.788 152.45C81.5453 152.347 81.284 152.296 81.004 152.296C80.7147 152.296 80.4393 152.343 80.178 152.436C79.926 152.52 79.702 152.646 79.506 152.814C79.3193 152.982 79.17 153.183 79.058 153.416C78.9553 153.649 78.904 153.911 78.904 154.2ZM87.0333 149.65C87.0333 149.921 87.0799 150.159 87.1733 150.364C87.2666 150.56 87.3926 150.723 87.5513 150.854C87.7099 150.985 87.8966 151.083 88.1113 151.148C88.3259 151.213 88.5546 151.246 88.7973 151.246C89.2733 151.246 89.6653 151.106 89.9733 150.826C90.2813 150.546 90.4353 150.154 90.4353 149.65C90.4353 149.146 90.2766 148.768 89.9593 148.516C89.6513 148.255 89.2546 148.124 88.7693 148.124C88.5359 148.124 88.3119 148.157 88.0973 148.222C87.8826 148.287 87.6959 148.385 87.5373 148.516C87.3879 148.647 87.2666 148.805 87.1733 148.992C87.0799 149.179 87.0333 149.398 87.0333 149.65ZM85.7733 149.608C85.7733 149.197 85.8526 148.838 86.0113 148.53C86.1699 148.213 86.3846 147.947 86.6553 147.732C86.9259 147.517 87.2339 147.354 87.5793 147.242C87.9339 147.13 88.3026 147.074 88.6853 147.074C89.2266 147.074 89.6886 147.149 90.0713 147.298C90.4539 147.438 90.7619 147.629 90.9953 147.872C91.2379 148.105 91.4153 148.376 91.5273 148.684C91.6393 148.983 91.6953 149.291 91.6953 149.608C91.6953 150.056 91.5693 150.467 91.3173 150.84C91.0746 151.204 90.7433 151.479 90.3233 151.666C90.9206 151.853 91.3639 152.161 91.6533 152.59C91.9426 153.01 92.0873 153.528 92.0873 154.144C92.0873 154.629 91.9986 155.059 91.8213 155.432C91.6533 155.805 91.4199 156.123 91.1213 156.384C90.8319 156.636 90.4866 156.827 90.0853 156.958C89.6839 157.089 89.2546 157.154 88.7973 157.154C88.3213 157.154 87.8779 157.093 87.4673 156.972C87.0566 156.851 86.6973 156.664 86.3893 156.412C86.0906 156.16 85.8526 155.847 85.6753 155.474C85.5073 155.091 85.4233 154.648 85.4233 154.144C85.4233 153.556 85.5726 153.047 85.8713 152.618C86.1699 152.179 86.5993 151.862 87.1593 151.666C86.7393 151.498 86.4033 151.227 86.1513 150.854C85.8993 150.471 85.7733 150.056 85.7733 149.608ZM86.6833 154.2C86.6833 154.797 86.8793 155.269 87.2713 155.614C87.6726 155.95 88.1813 156.118 88.7973 156.118C89.0959 156.118 89.3666 156.071 89.6093 155.978C89.8613 155.875 90.0759 155.74 90.2533 155.572C90.4399 155.395 90.5799 155.189 90.6733 154.956C90.7759 154.723 90.8273 154.466 90.8273 154.186C90.8273 153.915 90.7713 153.668 90.6593 153.444C90.5566 153.211 90.4119 153.01 90.2253 152.842C90.0386 152.674 89.8193 152.543 89.5673 152.45C89.3246 152.347 89.0633 152.296 88.7833 152.296C88.4939 152.296 88.2186 152.343 87.9573 152.436C87.7053 152.52 87.4813 152.646 87.2853 152.814C87.0986 152.982 86.9493 153.183 86.8373 153.416C86.7346 153.649 86.6833 153.911 86.6833 154.2ZM93.3426 152.548H97.3886V153.668H93.3426V152.548ZM103.856 154.606C103.903 155.091 104.099 155.465 104.444 155.726C104.79 155.987 105.2 156.118 105.676 156.118C106.404 156.118 106.95 155.805 107.314 155.18C107.678 154.545 107.879 153.579 107.916 152.282L107.888 152.254C107.664 152.674 107.347 153.01 106.936 153.262C106.526 153.505 106.078 153.626 105.592 153.626C105.088 153.626 104.64 153.547 104.248 153.388C103.856 153.22 103.525 152.991 103.254 152.702C102.993 152.413 102.792 152.063 102.652 151.652C102.522 151.241 102.456 150.793 102.456 150.308C102.456 149.832 102.536 149.398 102.694 149.006C102.853 148.605 103.077 148.264 103.366 147.984C103.656 147.695 104.001 147.471 104.402 147.312C104.804 147.153 105.242 147.074 105.718 147.074C106.185 147.074 106.624 147.149 107.034 147.298C107.445 147.438 107.804 147.685 108.112 148.04C108.42 148.395 108.663 148.88 108.84 149.496C109.027 150.103 109.12 150.877 109.12 151.82C109.12 153.537 108.845 154.858 108.294 155.782C107.753 156.697 106.88 157.154 105.676 157.154C104.846 157.154 104.155 156.944 103.604 156.524C103.054 156.104 102.741 155.465 102.666 154.606H103.856ZM107.706 150.392C107.706 150.084 107.66 149.795 107.566 149.524C107.482 149.253 107.352 149.015 107.174 148.81C107.006 148.595 106.796 148.427 106.544 148.306C106.292 148.185 105.998 148.124 105.662 148.124C105.308 148.124 105.004 148.189 104.752 148.32C104.51 148.451 104.309 148.628 104.15 148.852C104.001 149.067 103.889 149.314 103.814 149.594C103.749 149.874 103.716 150.168 103.716 150.476C103.716 150.747 103.763 151.008 103.856 151.26C103.959 151.512 104.094 151.736 104.262 151.932C104.44 152.128 104.645 152.287 104.878 152.408C105.121 152.52 105.387 152.576 105.676 152.576C105.984 152.576 106.264 152.52 106.516 152.408C106.768 152.287 106.983 152.128 107.16 151.932C107.338 151.727 107.473 151.493 107.566 151.232C107.66 150.961 107.706 150.681 107.706 150.392ZM111.636 154.606C111.682 155.091 111.878 155.465 112.224 155.726C112.569 155.987 112.98 156.118 113.456 156.118C114.184 156.118 114.73 155.805 115.094 155.18C115.458 154.545 115.658 153.579 115.696 152.282L115.668 152.254C115.444 152.674 115.126 153.01 114.716 153.262C114.305 153.505 113.857 153.626 113.372 153.626C112.868 153.626 112.42 153.547 112.028 153.388C111.636 153.22 111.304 152.991 111.034 152.702C110.772 152.413 110.572 152.063 110.432 151.652C110.301 151.241 110.236 150.793 110.236 150.308C110.236 149.832 110.315 149.398 110.474 149.006C110.632 148.605 110.856 148.264 111.146 147.984C111.435 147.695 111.78 147.471 112.182 147.312C112.583 147.153 113.022 147.074 113.498 147.074C113.964 147.074 114.403 147.149 114.814 147.298C115.224 147.438 115.584 147.685 115.892 148.04C116.2 148.395 116.442 148.88 116.62 149.496C116.806 150.103 116.9 150.877 116.9 151.82C116.9 153.537 116.624 154.858 116.074 155.782C115.532 156.697 114.66 157.154 113.456 157.154C112.625 157.154 111.934 156.944 111.384 156.524C110.833 156.104 110.52 155.465 110.446 154.606H111.636ZM115.486 150.392C115.486 150.084 115.439 149.795 115.346 149.524C115.262 149.253 115.131 149.015 114.954 148.81C114.786 148.595 114.576 148.427 114.324 148.306C114.072 148.185 113.778 148.124 113.442 148.124C113.087 148.124 112.784 148.189 112.532 148.32C112.289 148.451 112.088 148.628 111.93 148.852C111.78 149.067 111.668 149.314 111.594 149.594C111.528 149.874 111.496 150.168 111.496 150.476C111.496 150.747 111.542 151.008 111.636 151.26C111.738 151.512 111.874 151.736 112.042 151.932C112.219 152.128 112.424 152.287 112.658 152.408C112.9 152.52 113.166 152.576 113.456 152.576C113.764 152.576 114.044 152.52 114.296 152.408C114.548 152.287 114.762 152.128 114.94 151.932C115.117 151.727 115.252 151.493 115.346 151.232C115.439 150.961 115.486 150.681 115.486 150.392ZM119.415 154.606C119.462 155.091 119.658 155.465 120.003 155.726C120.348 155.987 120.759 156.118 121.235 156.118C121.963 156.118 122.509 155.805 122.873 155.18C123.237 154.545 123.438 153.579 123.475 152.282L123.447 152.254C123.223 152.674 122.906 153.01 122.495 153.262C122.084 153.505 121.636 153.626 121.151 153.626C120.647 153.626 120.199 153.547 119.807 153.388C119.415 153.22 119.084 152.991 118.813 152.702C118.552 152.413 118.351 152.063 118.211 151.652C118.08 151.241 118.015 150.793 118.015 150.308C118.015 149.832 118.094 149.398 118.253 149.006C118.412 148.605 118.636 148.264 118.925 147.984C119.214 147.695 119.56 147.471 119.961 147.312C120.362 147.153 120.801 147.074 121.277 147.074C121.744 147.074 122.182 147.149 122.593 147.298C123.004 147.438 123.363 147.685 123.671 148.04C123.979 148.395 124.222 148.88 124.399 149.496C124.586 150.103 124.679 150.877 124.679 151.82C124.679 153.537 124.404 154.858 123.853 155.782C123.312 156.697 122.439 157.154 121.235 157.154C120.404 157.154 119.714 156.944 119.163 156.524C118.612 156.104 118.3 155.465 118.225 154.606H119.415ZM123.265 150.392C123.265 150.084 123.218 149.795 123.125 149.524C123.041 149.253 122.91 149.015 122.733 148.81C122.565 148.595 122.355 148.427 122.103 148.306C121.851 148.185 121.557 148.124 121.221 148.124C120.866 148.124 120.563 148.189 120.311 148.32C120.068 148.451 119.868 148.628 119.709 148.852C119.56 149.067 119.448 149.314 119.373 149.594C119.308 149.874 119.275 150.168 119.275 150.476C119.275 150.747 119.322 151.008 119.415 151.26C119.518 151.512 119.653 151.736 119.821 151.932C119.998 152.128 120.204 152.287 120.437 152.408C120.68 152.52 120.946 152.576 121.235 152.576C121.543 152.576 121.823 152.52 122.075 152.408C122.327 152.287 122.542 152.128 122.719 151.932C122.896 151.727 123.032 151.493 123.125 151.232C123.218 150.961 123.265 150.681 123.265 150.392ZM127.194 154.606C127.241 155.091 127.437 155.465 127.782 155.726C128.128 155.987 128.538 156.118 129.014 156.118C129.742 156.118 130.288 155.805 130.652 155.18C131.016 154.545 131.217 153.579 131.254 152.282L131.226 152.254C131.002 152.674 130.685 153.01 130.274 153.262C129.864 153.505 129.416 153.626 128.93 153.626C128.426 153.626 127.978 153.547 127.586 153.388C127.194 153.22 126.863 152.991 126.592 152.702C126.331 152.413 126.13 152.063 125.99 151.652C125.86 151.241 125.794 150.793 125.794 150.308C125.794 149.832 125.874 149.398 126.032 149.006C126.191 148.605 126.415 148.264 126.704 147.984C126.994 147.695 127.339 147.471 127.74 147.312C128.142 147.153 128.58 147.074 129.056 147.074C129.523 147.074 129.962 147.149 130.372 147.298C130.783 147.438 131.142 147.685 131.45 148.04C131.758 148.395 132.001 148.88 132.178 149.496C132.365 150.103 132.458 150.877 132.458 151.82C132.458 153.537 132.183 154.858 131.632 155.782C131.091 156.697 130.218 157.154 129.014 157.154C128.184 157.154 127.493 156.944 126.942 156.524C126.392 156.104 126.079 155.465 126.004 154.606H127.194ZM131.044 150.392C131.044 150.084 130.998 149.795 130.904 149.524C130.82 149.253 130.69 149.015 130.512 148.81C130.344 148.595 130.134 148.427 129.882 148.306C129.63 148.185 129.336 148.124 129 148.124C128.646 148.124 128.342 148.189 128.09 148.32C127.848 148.451 127.647 148.628 127.488 148.852C127.339 149.067 127.227 149.314 127.152 149.594C127.087 149.874 127.054 150.168 127.054 150.476C127.054 150.747 127.101 151.008 127.194 151.26C127.297 151.512 127.432 151.736 127.6 151.932C127.778 152.128 127.983 152.287 128.216 152.408C128.459 152.52 128.725 152.576 129.014 152.576C129.322 152.576 129.602 152.52 129.854 152.408C130.106 152.287 130.321 152.128 130.498 151.932C130.676 151.727 130.811 151.493 130.904 151.232C130.998 150.961 131.044 150.681 131.044 150.392Z" fill="#666666"/>
</svg>
