<svg width="179" height="48" viewBox="0 0 179 48" fill="none" xmlns="http://www.w3.org/2000/svg">
<path fill-rule="evenodd" clip-rule="evenodd" d="M17.1753 4.73285L25.1491 0.796581C25.9425 0.4049 26.3393 0.20906 26.7696 0.211945C27.1999 0.214831 27.5886 0.413265 28.3661 0.810133C30.2485 1.77098 33.5013 3.46033 36.5454 5.1822C35.8628 5.81894 35.0655 6.57294 34.2047 7.40685C31.7921 9.74403 28.8413 12.7461 26.5164 15.5669L17.1753 4.73285ZM14.2254 6.18904L4.28157 11.0978C2.31632 12.0679 1.33369 12.553 1.16201 13.4368C0.990324 14.3206 1.71988 15.1383 3.17901 16.7736L16.034 31.1813C16.6945 30.0831 17.5585 28.6646 18.5367 27.1024C20.3156 24.2612 22.4966 20.9053 24.5268 18.1369L14.2254 6.18904ZM36.4208 9.69444C37.5806 8.57092 38.6232 7.5948 39.4179 6.86208C42.2382 8.57435 45.9655 11.0089 48.7425 12.849C50.5267 14.0312 51.4188 14.6223 51.4951 15.4944C51.5714 16.3666 50.7795 17.119 49.1955 18.6239C46.445 21.237 42.6158 25.0497 39.9213 28.4378C37.1223 31.9571 33.6624 37.3889 31.3455 41.1658C30.1396 43.1314 29.5367 44.1142 28.6275 44.1955C27.7183 44.2767 26.9579 43.4245 25.4371 41.72L18.2555 33.671C18.3357 33.5364 18.4212 33.3933 18.5115 33.2425C19.1889 32.1115 20.1404 30.5427 21.2362 28.7926C23.4384 25.2754 26.1859 21.0866 28.4557 18.2327C30.7198 15.3858 33.8381 12.1964 36.4208 9.69444Z" fill="#174924"/>
<mask id="path-2-outside-1_307_2403" maskUnits="userSpaceOnUse" x="63.5686" y="1.18115" width="115" height="44" fill="black">
<rect fill="white" x="63.5686" y="1.18115" width="115" height="44"/>
<path d="M65.2951 2.18115H67.9798V16.7592H78.1959V19.3304H65.2951V2.18115Z"/>
<path d="M78.6861 19.3304L85.6829 2.18115H89.3892L96.3979 19.3304H93.3806L91.7413 15.1687H83.3308L81.7034 19.3304H78.6861ZM84.2812 12.7171H90.791L87.5361 4.41749L84.2812 12.7171Z"/>
<path d="M100.345 4.14244V19.3304H97.6603V2.18115H102.317L110.24 17.3931V2.18115H112.925V19.3304H108.268L100.345 4.14244Z"/>
<path d="M115.66 19.3304V2.18115H122.111C123.901 2.18115 125.445 2.55587 126.744 3.3053C128.043 4.05474 129.013 5.07923 129.654 6.37878C130.304 7.67036 130.628 9.16922 130.628 10.8754C130.628 12.0872 130.434 13.2114 130.046 14.2478C129.666 15.2763 129.12 16.1693 128.407 16.9267C127.694 17.6761 126.795 18.2661 125.71 18.6966C124.633 19.1192 123.433 19.3304 122.111 19.3304H115.66ZM118.345 4.63276V16.8788H122.111C123.029 16.8788 123.861 16.7194 124.605 16.4005C125.35 16.0816 125.964 15.647 126.447 15.0969C126.93 14.5468 127.302 13.913 127.563 13.1954C127.825 12.4699 127.955 11.6966 127.955 10.8754C127.955 9.01774 127.445 7.51489 126.423 6.36682C125.409 5.21078 123.972 4.63276 122.111 4.63276H118.345Z"/>
<path d="M67.3739 35.2479C67.3739 37.2172 67.9085 38.7719 68.9776 39.912C70.0467 41.0521 71.4564 41.6221 73.2066 41.6221C74.9806 41.6221 76.3902 41.1079 77.4356 40.0794C78.481 39.0509 79.1383 37.7673 79.4075 36.2286L81.8428 37.2092C81.3914 39.2582 80.4054 40.9125 78.8849 42.1722C77.3722 43.4319 75.4795 44.0617 73.2066 44.0617C71.5356 44.0857 70.0349 43.7109 68.7044 42.9376C67.3739 42.1563 66.3484 41.0919 65.6277 39.7445C64.907 38.3971 64.5546 36.8983 64.5704 35.2479C64.5467 34.0361 64.7566 32.884 65.2 31.7918C65.6515 30.6915 66.2612 29.7468 67.0294 28.9575C67.7976 28.1682 68.7202 27.5463 69.7973 27.0919C70.8822 26.6294 72.0187 26.4102 73.2066 26.4341C74.2599 26.4341 75.23 26.5896 76.117 26.9005C77.004 27.2035 77.7563 27.622 78.374 28.1562C78.9997 28.6904 79.5224 29.3003 79.9421 29.9859C80.3618 30.6636 80.6707 31.3971 80.8687 32.1864L78.4334 33.2866C78.1721 31.9552 77.5861 30.8908 76.6753 30.0936C75.7725 29.2883 74.6163 28.8857 73.2066 28.8857C71.5198 28.8857 70.1259 29.4717 69.0251 30.6437C67.9243 31.8157 67.3739 33.3504 67.3739 35.2479Z"/>
<path d="M83.414 26.6733H86.0868V36.8146C86.0868 38.2736 86.4907 39.4176 87.2985 40.2468C88.1063 41.076 89.1794 41.4905 90.5177 41.4905C91.8561 41.4905 92.9292 41.076 93.737 40.2468C94.5448 39.4176 94.9487 38.2736 94.9487 36.8146V26.6733H97.6215V36.97C97.6215 39.0908 96.9761 40.8049 95.6852 42.1124C94.3943 43.412 92.6718 44.0617 90.5177 44.0617C88.3637 44.0617 86.6412 43.412 85.3503 42.1124C84.0594 40.8049 83.414 39.0908 83.414 36.97V26.6733Z"/>
<path d="M113.911 43.8226H110.62C110.415 43.416 110.26 42.9416 110.157 42.3994C110.062 41.8573 110.015 41.0241 110.015 39.9C110.015 38.7519 109.765 37.9347 109.266 37.4484C108.767 36.9621 108.003 36.7189 106.974 36.7189H102.84V43.8226H100.155V26.6733H108.316C109.987 26.6733 111.313 27.1158 112.295 28.0007C113.285 28.8777 113.78 29.9899 113.78 31.3373C113.78 32.4136 113.483 33.3424 112.889 34.1238C112.295 34.8971 111.46 35.4751 110.383 35.8578C111.23 36.1927 111.876 36.687 112.319 37.3408C112.763 37.9945 113.008 38.8556 113.056 39.9239C113.095 40.8408 113.159 41.5862 113.246 42.1603C113.341 42.6306 113.563 43.0532 113.911 43.4279V43.8226ZM102.84 34.1477H108.066C108.993 34.1477 109.71 33.9364 110.217 33.5139C110.731 33.0833 110.989 32.4774 110.989 31.6961C110.989 30.9148 110.731 30.3128 110.217 29.8903C109.71 29.4597 108.993 29.2445 108.066 29.2445H102.84V34.1477Z"/>
<path d="M114.568 43.8226L121.564 26.6733H125.271L132.279 43.8226H129.262L127.623 39.6608H119.212L117.585 43.8226H114.568ZM120.163 37.2092H126.672L123.418 28.9096L120.163 37.2092Z"/>
<path d="M144.637 26.6733V29.2445H138.436V43.8226H135.763V29.2445H129.55V26.6733H144.637Z"/>
<path d="M153.359 26.4341C154.555 26.4102 155.704 26.6334 156.804 27.1038C157.913 27.5742 158.867 28.208 159.667 29.0053C160.467 29.8026 161.101 30.7473 161.568 31.8396C162.035 32.9319 162.257 34.068 162.233 35.2479C162.257 36.4279 162.035 37.568 161.568 38.6682C161.101 39.7605 160.467 40.7052 159.667 41.5025C158.867 42.2998 157.913 42.9336 156.804 43.404C155.704 43.8664 154.555 44.0857 153.359 44.0617C152.164 44.0857 151.011 43.8664 149.903 43.404C148.802 42.9336 147.851 42.2998 147.052 41.5025C146.252 40.7052 145.614 39.7605 145.139 38.6682C144.672 37.568 144.45 36.4279 144.474 35.2479C144.45 34.0759 144.672 32.9438 145.139 31.8516C145.614 30.7513 146.252 29.8026 147.052 29.0053C147.851 28.208 148.802 27.5742 149.903 27.1038C151.011 26.6334 152.164 26.4102 153.359 26.4341ZM153.359 41.4905C154.476 41.4905 155.494 41.2314 156.412 40.7132C157.339 40.187 158.075 39.4456 158.622 38.4888C159.168 37.5321 159.442 36.4518 159.442 35.2479C159.442 33.4222 158.859 31.9273 157.695 30.7633C156.539 29.5913 155.094 29.0053 153.359 29.0053C151.625 29.0053 150.176 29.5953 149.012 30.7752C147.855 31.9552 147.277 33.4541 147.277 35.2718C147.277 37.0976 147.863 38.5925 149.035 39.7565C150.207 40.9125 151.649 41.4905 153.359 41.4905Z"/>
<path d="M178 43.8226H174.709C174.504 43.416 174.349 42.9416 174.246 42.3994C174.151 41.8573 174.104 41.0241 174.104 39.9C174.104 38.7519 173.854 37.9347 173.355 37.4484C172.856 36.9621 172.092 36.7189 171.063 36.7189H166.929V43.8226H164.244V26.6733H172.405C174.076 26.6733 175.402 27.1158 176.384 28.0007C177.374 28.8777 177.869 29.9899 177.869 31.3373C177.869 32.4136 177.572 33.3424 176.978 34.1238C176.384 34.8971 175.549 35.4751 174.472 35.8578C175.319 36.1927 175.965 36.687 176.408 37.3408C176.852 37.9945 177.097 38.8556 177.145 39.9239C177.184 40.8408 177.248 41.5862 177.335 42.1603C177.43 42.6306 177.652 43.0532 178 43.4279V43.8226ZM166.929 34.1477H172.155C173.082 34.1477 173.799 33.9364 174.306 33.5139C174.82 33.0833 175.078 32.4774 175.078 31.6961C175.078 30.9148 174.82 30.3128 174.306 29.8903C173.799 29.4597 173.082 29.2445 172.155 29.2445H166.929V34.1477Z"/>
</mask>
<path d="M65.2951 2.18115H67.9798V16.7592H78.1959V19.3304H65.2951V2.18115Z" fill="#174924"/>
<path d="M78.6861 19.3304L85.6829 2.18115H89.3892L96.3979 19.3304H93.3806L91.7413 15.1687H83.3308L81.7034 19.3304H78.6861ZM84.2812 12.7171H90.791L87.5361 4.41749L84.2812 12.7171Z" fill="#174924"/>
<path d="M100.345 4.14244V19.3304H97.6603V2.18115H102.317L110.24 17.3931V2.18115H112.925V19.3304H108.268L100.345 4.14244Z" fill="#174924"/>
<path d="M115.66 19.3304V2.18115H122.111C123.901 2.18115 125.445 2.55587 126.744 3.3053C128.043 4.05474 129.013 5.07923 129.654 6.37878C130.304 7.67036 130.628 9.16922 130.628 10.8754C130.628 12.0872 130.434 13.2114 130.046 14.2478C129.666 15.2763 129.12 16.1693 128.407 16.9267C127.694 17.6761 126.795 18.2661 125.71 18.6966C124.633 19.1192 123.433 19.3304 122.111 19.3304H115.66ZM118.345 4.63276V16.8788H122.111C123.029 16.8788 123.861 16.7194 124.605 16.4005C125.35 16.0816 125.964 15.647 126.447 15.0969C126.93 14.5468 127.302 13.913 127.563 13.1954C127.825 12.4699 127.955 11.6966 127.955 10.8754C127.955 9.01774 127.445 7.51489 126.423 6.36682C125.409 5.21078 123.972 4.63276 122.111 4.63276H118.345Z" fill="#174924"/>
<path d="M67.3739 35.2479C67.3739 37.2172 67.9085 38.7719 68.9776 39.912C70.0467 41.0521 71.4564 41.6221 73.2066 41.6221C74.9806 41.6221 76.3902 41.1079 77.4356 40.0794C78.481 39.0509 79.1383 37.7673 79.4075 36.2286L81.8428 37.2092C81.3914 39.2582 80.4054 40.9125 78.8849 42.1722C77.3722 43.4319 75.4795 44.0617 73.2066 44.0617C71.5356 44.0857 70.0349 43.7109 68.7044 42.9376C67.3739 42.1563 66.3484 41.0919 65.6277 39.7445C64.907 38.3971 64.5546 36.8983 64.5704 35.2479C64.5467 34.0361 64.7566 32.884 65.2 31.7918C65.6515 30.6915 66.2612 29.7468 67.0294 28.9575C67.7976 28.1682 68.7202 27.5463 69.7973 27.0919C70.8822 26.6294 72.0187 26.4102 73.2066 26.4341C74.2599 26.4341 75.23 26.5896 76.117 26.9005C77.004 27.2035 77.7563 27.622 78.374 28.1562C78.9997 28.6904 79.5224 29.3003 79.9421 29.9859C80.3618 30.6636 80.6707 31.3971 80.8687 32.1864L78.4334 33.2866C78.1721 31.9552 77.5861 30.8908 76.6753 30.0936C75.7725 29.2883 74.6163 28.8857 73.2066 28.8857C71.5198 28.8857 70.1259 29.4717 69.0251 30.6437C67.9243 31.8157 67.3739 33.3504 67.3739 35.2479Z" fill="#174924"/>
<path d="M83.414 26.6733H86.0868V36.8146C86.0868 38.2736 86.4907 39.4176 87.2985 40.2468C88.1063 41.076 89.1794 41.4905 90.5177 41.4905C91.8561 41.4905 92.9292 41.076 93.737 40.2468C94.5448 39.4176 94.9487 38.2736 94.9487 36.8146V26.6733H97.6215V36.97C97.6215 39.0908 96.9761 40.8049 95.6852 42.1124C94.3943 43.412 92.6718 44.0617 90.5177 44.0617C88.3637 44.0617 86.6412 43.412 85.3503 42.1124C84.0594 40.8049 83.414 39.0908 83.414 36.97V26.6733Z" fill="#174924"/>
<path d="M113.911 43.8226H110.62C110.415 43.416 110.26 42.9416 110.157 42.3994C110.062 41.8573 110.015 41.0241 110.015 39.9C110.015 38.7519 109.765 37.9347 109.266 37.4484C108.767 36.9621 108.003 36.7189 106.974 36.7189H102.84V43.8226H100.155V26.6733H108.316C109.987 26.6733 111.313 27.1158 112.295 28.0007C113.285 28.8777 113.78 29.9899 113.78 31.3373C113.78 32.4136 113.483 33.3424 112.889 34.1238C112.295 34.8971 111.46 35.4751 110.383 35.8578C111.23 36.1927 111.876 36.687 112.319 37.3408C112.763 37.9945 113.008 38.8556 113.056 39.9239C113.095 40.8408 113.159 41.5862 113.246 42.1603C113.341 42.6306 113.563 43.0532 113.911 43.4279V43.8226ZM102.84 34.1477H108.066C108.993 34.1477 109.71 33.9364 110.217 33.5139C110.731 33.0833 110.989 32.4774 110.989 31.6961C110.989 30.9148 110.731 30.3128 110.217 29.8903C109.71 29.4597 108.993 29.2445 108.066 29.2445H102.84V34.1477Z" fill="#174924"/>
<path d="M114.568 43.8226L121.564 26.6733H125.271L132.279 43.8226H129.262L127.623 39.6608H119.212L117.585 43.8226H114.568ZM120.163 37.2092H126.672L123.418 28.9096L120.163 37.2092Z" fill="#174924"/>
<path d="M144.637 26.6733V29.2445H138.436V43.8226H135.763V29.2445H129.55V26.6733H144.637Z" fill="#174924"/>
<path d="M153.359 26.4341C154.555 26.4102 155.704 26.6334 156.804 27.1038C157.913 27.5742 158.867 28.208 159.667 29.0053C160.467 29.8026 161.101 30.7473 161.568 31.8396C162.035 32.9319 162.257 34.068 162.233 35.2479C162.257 36.4279 162.035 37.568 161.568 38.6682C161.101 39.7605 160.467 40.7052 159.667 41.5025C158.867 42.2998 157.913 42.9336 156.804 43.404C155.704 43.8664 154.555 44.0857 153.359 44.0617C152.164 44.0857 151.011 43.8664 149.903 43.404C148.802 42.9336 147.851 42.2998 147.052 41.5025C146.252 40.7052 145.614 39.7605 145.139 38.6682C144.672 37.568 144.45 36.4279 144.474 35.2479C144.45 34.0759 144.672 32.9438 145.139 31.8516C145.614 30.7513 146.252 29.8026 147.052 29.0053C147.851 28.208 148.802 27.5742 149.903 27.1038C151.011 26.6334 152.164 26.4102 153.359 26.4341ZM153.359 41.4905C154.476 41.4905 155.494 41.2314 156.412 40.7132C157.339 40.187 158.075 39.4456 158.622 38.4888C159.168 37.5321 159.442 36.4518 159.442 35.2479C159.442 33.4222 158.859 31.9273 157.695 30.7633C156.539 29.5913 155.094 29.0053 153.359 29.0053C151.625 29.0053 150.176 29.5953 149.012 30.7752C147.855 31.9552 147.277 33.4541 147.277 35.2718C147.277 37.0976 147.863 38.5925 149.035 39.7565C150.207 40.9125 151.649 41.4905 153.359 41.4905Z" fill="#174924"/>
<path d="M178 43.8226H174.709C174.504 43.416 174.349 42.9416 174.246 42.3994C174.151 41.8573 174.104 41.0241 174.104 39.9C174.104 38.7519 173.854 37.9347 173.355 37.4484C172.856 36.9621 172.092 36.7189 171.063 36.7189H166.929V43.8226H164.244V26.6733H172.405C174.076 26.6733 175.402 27.1158 176.384 28.0007C177.374 28.8777 177.869 29.9899 177.869 31.3373C177.869 32.4136 177.572 33.3424 176.978 34.1238C176.384 34.8971 175.549 35.4751 174.472 35.8578C175.319 36.1927 175.965 36.687 176.408 37.3408C176.852 37.9945 177.097 38.8556 177.145 39.9239C177.184 40.8408 177.248 41.5862 177.335 42.1603C177.43 42.6306 177.652 43.0532 178 43.4279V43.8226ZM166.929 34.1477H172.155C173.082 34.1477 173.799 33.9364 174.306 33.5139C174.82 33.0833 175.078 32.4774 175.078 31.6961C175.078 30.9148 174.82 30.3128 174.306 29.8903C173.799 29.4597 173.082 29.2445 172.155 29.2445H166.929V34.1477Z" fill="#174924"/>
<path d="M65.2951 2.18115H67.9798V16.7592H78.1959V19.3304H65.2951V2.18115Z" stroke="#174924" stroke-width="0.318988" mask="url(#path-2-outside-1_307_2403)"/>
<path d="M78.6861 19.3304L85.6829 2.18115H89.3892L96.3979 19.3304H93.3806L91.7413 15.1687H83.3308L81.7034 19.3304H78.6861ZM84.2812 12.7171H90.791L87.5361 4.41749L84.2812 12.7171Z" stroke="#174924" stroke-width="0.318988" mask="url(#path-2-outside-1_307_2403)"/>
<path d="M100.345 4.14244V19.3304H97.6603V2.18115H102.317L110.24 17.3931V2.18115H112.925V19.3304H108.268L100.345 4.14244Z" stroke="#174924" stroke-width="0.318988" mask="url(#path-2-outside-1_307_2403)"/>
<path d="M115.66 19.3304V2.18115H122.111C123.901 2.18115 125.445 2.55587 126.744 3.3053C128.043 4.05474 129.013 5.07923 129.654 6.37878C130.304 7.67036 130.628 9.16922 130.628 10.8754C130.628 12.0872 130.434 13.2114 130.046 14.2478C129.666 15.2763 129.12 16.1693 128.407 16.9267C127.694 17.6761 126.795 18.2661 125.71 18.6966C124.633 19.1192 123.433 19.3304 122.111 19.3304H115.66ZM118.345 4.63276V16.8788H122.111C123.029 16.8788 123.861 16.7194 124.605 16.4005C125.35 16.0816 125.964 15.647 126.447 15.0969C126.93 14.5468 127.302 13.913 127.563 13.1954C127.825 12.4699 127.955 11.6966 127.955 10.8754C127.955 9.01774 127.445 7.51489 126.423 6.36682C125.409 5.21078 123.972 4.63276 122.111 4.63276H118.345Z" stroke="#174924" stroke-width="0.318988" mask="url(#path-2-outside-1_307_2403)"/>
<path d="M67.3739 35.2479C67.3739 37.2172 67.9085 38.7719 68.9776 39.912C70.0467 41.0521 71.4564 41.6221 73.2066 41.6221C74.9806 41.6221 76.3902 41.1079 77.4356 40.0794C78.481 39.0509 79.1383 37.7673 79.4075 36.2286L81.8428 37.2092C81.3914 39.2582 80.4054 40.9125 78.8849 42.1722C77.3722 43.4319 75.4795 44.0617 73.2066 44.0617C71.5356 44.0857 70.0349 43.7109 68.7044 42.9376C67.3739 42.1563 66.3484 41.0919 65.6277 39.7445C64.907 38.3971 64.5546 36.8983 64.5704 35.2479C64.5467 34.0361 64.7566 32.884 65.2 31.7918C65.6515 30.6915 66.2612 29.7468 67.0294 28.9575C67.7976 28.1682 68.7202 27.5463 69.7973 27.0919C70.8822 26.6294 72.0187 26.4102 73.2066 26.4341C74.2599 26.4341 75.23 26.5896 76.117 26.9005C77.004 27.2035 77.7563 27.622 78.374 28.1562C78.9997 28.6904 79.5224 29.3003 79.9421 29.9859C80.3618 30.6636 80.6707 31.3971 80.8687 32.1864L78.4334 33.2866C78.1721 31.9552 77.5861 30.8908 76.6753 30.0936C75.7725 29.2883 74.6163 28.8857 73.2066 28.8857C71.5198 28.8857 70.1259 29.4717 69.0251 30.6437C67.9243 31.8157 67.3739 33.3504 67.3739 35.2479Z" stroke="#174924" stroke-width="0.318988" mask="url(#path-2-outside-1_307_2403)"/>
<path d="M83.414 26.6733H86.0868V36.8146C86.0868 38.2736 86.4907 39.4176 87.2985 40.2468C88.1063 41.076 89.1794 41.4905 90.5177 41.4905C91.8561 41.4905 92.9292 41.076 93.737 40.2468C94.5448 39.4176 94.9487 38.2736 94.9487 36.8146V26.6733H97.6215V36.97C97.6215 39.0908 96.9761 40.8049 95.6852 42.1124C94.3943 43.412 92.6718 44.0617 90.5177 44.0617C88.3637 44.0617 86.6412 43.412 85.3503 42.1124C84.0594 40.8049 83.414 39.0908 83.414 36.97V26.6733Z" stroke="#174924" stroke-width="0.318988" mask="url(#path-2-outside-1_307_2403)"/>
<path d="M113.911 43.8226H110.62C110.415 43.416 110.26 42.9416 110.157 42.3994C110.062 41.8573 110.015 41.0241 110.015 39.9C110.015 38.7519 109.765 37.9347 109.266 37.4484C108.767 36.9621 108.003 36.7189 106.974 36.7189H102.84V43.8226H100.155V26.6733H108.316C109.987 26.6733 111.313 27.1158 112.295 28.0007C113.285 28.8777 113.78 29.9899 113.78 31.3373C113.78 32.4136 113.483 33.3424 112.889 34.1238C112.295 34.8971 111.46 35.4751 110.383 35.8578C111.23 36.1927 111.876 36.687 112.319 37.3408C112.763 37.9945 113.008 38.8556 113.056 39.9239C113.095 40.8408 113.159 41.5862 113.246 42.1603C113.341 42.6306 113.563 43.0532 113.911 43.4279V43.8226ZM102.84 34.1477H108.066C108.993 34.1477 109.71 33.9364 110.217 33.5139C110.731 33.0833 110.989 32.4774 110.989 31.6961C110.989 30.9148 110.731 30.3128 110.217 29.8903C109.71 29.4597 108.993 29.2445 108.066 29.2445H102.84V34.1477Z" stroke="#174924" stroke-width="0.318988" mask="url(#path-2-outside-1_307_2403)"/>
<path d="M114.568 43.8226L121.564 26.6733H125.271L132.279 43.8226H129.262L127.623 39.6608H119.212L117.585 43.8226H114.568ZM120.163 37.2092H126.672L123.418 28.9096L120.163 37.2092Z" stroke="#174924" stroke-width="0.318988" mask="url(#path-2-outside-1_307_2403)"/>
<path d="M144.637 26.6733V29.2445H138.436V43.8226H135.763V29.2445H129.55V26.6733H144.637Z" stroke="#174924" stroke-width="0.318988" mask="url(#path-2-outside-1_307_2403)"/>
<path d="M153.359 26.4341C154.555 26.4102 155.704 26.6334 156.804 27.1038C157.913 27.5742 158.867 28.208 159.667 29.0053C160.467 29.8026 161.101 30.7473 161.568 31.8396C162.035 32.9319 162.257 34.068 162.233 35.2479C162.257 36.4279 162.035 37.568 161.568 38.6682C161.101 39.7605 160.467 40.7052 159.667 41.5025C158.867 42.2998 157.913 42.9336 156.804 43.404C155.704 43.8664 154.555 44.0857 153.359 44.0617C152.164 44.0857 151.011 43.8664 149.903 43.404C148.802 42.9336 147.851 42.2998 147.052 41.5025C146.252 40.7052 145.614 39.7605 145.139 38.6682C144.672 37.568 144.45 36.4279 144.474 35.2479C144.45 34.0759 144.672 32.9438 145.139 31.8516C145.614 30.7513 146.252 29.8026 147.052 29.0053C147.851 28.208 148.802 27.5742 149.903 27.1038C151.011 26.6334 152.164 26.4102 153.359 26.4341ZM153.359 41.4905C154.476 41.4905 155.494 41.2314 156.412 40.7132C157.339 40.187 158.075 39.4456 158.622 38.4888C159.168 37.5321 159.442 36.4518 159.442 35.2479C159.442 33.4222 158.859 31.9273 157.695 30.7633C156.539 29.5913 155.094 29.0053 153.359 29.0053C151.625 29.0053 150.176 29.5953 149.012 30.7752C147.855 31.9552 147.277 33.4541 147.277 35.2718C147.277 37.0976 147.863 38.5925 149.035 39.7565C150.207 40.9125 151.649 41.4905 153.359 41.4905Z" stroke="#174924" stroke-width="0.318988" mask="url(#path-2-outside-1_307_2403)"/>
<path d="M178 43.8226H174.709C174.504 43.416 174.349 42.9416 174.246 42.3994C174.151 41.8573 174.104 41.0241 174.104 39.9C174.104 38.7519 173.854 37.9347 173.355 37.4484C172.856 36.9621 172.092 36.7189 171.063 36.7189H166.929V43.8226H164.244V26.6733H172.405C174.076 26.6733 175.402 27.1158 176.384 28.0007C177.374 28.8777 177.869 29.9899 177.869 31.3373C177.869 32.4136 177.572 33.3424 176.978 34.1238C176.384 34.8971 175.549 35.4751 174.472 35.8578C175.319 36.1927 175.965 36.687 176.408 37.3408C176.852 37.9945 177.097 38.8556 177.145 39.9239C177.184 40.8408 177.248 41.5862 177.335 42.1603C177.43 42.6306 177.652 43.0532 178 43.4279V43.8226ZM166.929 34.1477H172.155C173.082 34.1477 173.799 33.9364 174.306 33.5139C174.82 33.0833 175.078 32.4774 175.078 31.6961C175.078 30.9148 174.82 30.3128 174.306 29.8903C173.799 29.4597 173.082 29.2445 172.155 29.2445H166.929V34.1477Z" stroke="#174924" stroke-width="0.318988" mask="url(#path-2-outside-1_307_2403)"/>
</svg>
